<mxfile host="Electron" modified="2024-07-07T22:38:03.111Z" agent="Mozilla/5.0 (Windows NT 10.0; Win64; x64) AppleWebKit/537.36 (KHTML, like Gecko) draw.io/24.6.4 Chrome/124.0.6367.207 Electron/30.0.6 Safari/537.36" etag="EgWn_FfSQK3TiBa4mBq6" version="24.6.4" type="device">
  <diagram name="Page-1" id="de7hSBH9O__8y5S12WL3">
    <mxGraphModel dx="2100" dy="1242" grid="1" gridSize="10" guides="1" tooltips="1" connect="1" arrows="1" fold="1" page="1" pageScale="1" pageWidth="1100" pageHeight="850" math="1" shadow="0">
      <root>
        <mxCell id="0" />
        <mxCell id="1" parent="0" />
        <mxCell id="I1JThzbMCgrEHhUARHG0-1" value="" style="rounded=0;whiteSpace=wrap;html=1;fillColor=#f9f7ed;strokeColor=#36393d;" vertex="1" parent="1">
          <mxGeometry x="193.5" y="315" width="720" height="470" as="geometry" />
        </mxCell>
        <mxCell id="I1JThzbMCgrEHhUARHG0-20" value="" style="shape=image;aspect=fixed;image=data:image/png,iVBORw0KGgoAAAANSUhEUgAAAiAAAAH9CAMAAAAUHzdCAAADAFBMVEUKDA33+fKZoZVdYmk2OEDn7N7a3tYWGBmPmo23vLyHkY9WW2F8iH52foEqKi7BxsJLTUyqsqVvd3kOEBDy9O7O08s/QEAgHiRkbHAyNDROUlj///8NDhCiq52wt7Hj5d7t7+oWFRjT19GVnppFSUf19vQmJi3c4dNSVVRzfX7q7OZgZmxYXmSXoKAdHCHLz8eLlZFCRkTv8e2DjoQSEhQ5O0N6hYUsLDQYFhrl5+FSWF6RmZWvt7E2ODinr6nR1c/6+vYiISZqcna8xLTu8eZESVDd39lkambW2tMvLzmfqaNkam19iYnm6ePFzb7N1MR2gYFBRU2fqZtYXFqqsqyJk4nf4ts7Pj1ITFIaGB2CjIxobnTFy8NRVVyPmZVESE6Zn52iqqWvuaqaop7V28wvMC++xL0mKCgzNDweICA9QUldYV+zurOdp6F0dHVpaWoAAAAAAAAAAAAAAAAAAAAAAAAAAAAAAAAAAAAAAAAAAQAsAAB25UoAAAAAAACAAAABb/QAAAEAAAAAAAAAAABv9RB7zwEBd5IAAADlSix8vnYAd5IAAAAAAAAAAAAAAAAAAAAAAAAAAAAAAAAAAAAAAAAAAAAAAAAAAAAAAAAAAAAAAAAAAAAAAAAAAAAAAAAAAAAAAAAAAAAEAAB3kgvAXigAAAcAAZAAAAAAAAAAAAAAAAAAAAAAAAAAZAAQAAAADwDIY9gAAAcPAAAAAAAAAABKyAAnB8AHwF7AXihjyAcAB8gBkABv9XD1LAEGAW93jfePCFkAAHcAAAAAAAAAAAAAAAAAAAAAAABQagHxYnnQdtMBb/XT8b0At3YAAAAAAAAAAADyMsBgdtMAAAAAAAUAgACAAADAEAAAAAAAAAAAAAAAAAcAAAAAAwA8AAABPgHAXij1+AcAAW8AAAAAAABeKAAAB8AAAAC7LQQAAAcAAAAAAAAAAAAAAAAYAAAAAAAAAAD1cABAAW8AAAAAAAD1wAC/AW8HwEcAAGQADAACAAAAAAAAAQEmLQAUi8ZRneXgAAAAAWJLR0QbAmDUpAAAAAlwSFlzAAASdAAAEnQB3mYfeAAAIABJREFUeNrtne1j4kaa7cuLm8w1054MoHXW0lxEM0UG2hcTUiDcdmzJ3Xjotp00GUIQAfewzLBaj9j9/79dSbwJW7xagIBzkrZlEFCofjrPU6VSFeEhaIIIDgEEQCAAAgEQCIBAAAQCIBAAgQAIBAEQCIBAAAQCIBAAgQAIBEAgAAIBEAgCIBAAWYIo7W3IAAR6RscTSAAINF4yAIEmhBg4CARAAMjMysjyDn5rADKfe7Rz1f39QqDWzmQACDQisVZj5DDX6XRirUScEHZAAciSW4zy5jQRrgLk669/sj/y/jsSSCaN0LPV7Zm1OkixXSppRykteK37zb+T3oTDNIoyu9uzFa37M1xSlJhhLXCQJQNyDUAAyOgBN49pgDCp2Wy/KbZzOY117Zp606vjcULDTk9wHPFFkIMsQYEAqd6PpIAJQlL3XjxEMi9JEu+ckBptmfgtAHFT1onYVEsl+vyJJsnxZ2eeO0bKcT/QPGvYmD+kQDgMQFxtL1ZZ2/mZiJry3iHSsrwsG3Fk72lHmWxyYbRh2N0dAHEx/RDffhw5A4eZoHHMjxmreOsIXaYiowZi40Ts5quEJAEIAHFoYgGQJahUUifxEwxqfp73UB+lcGrjQ3Yq8pmuMwDilnxGi2BMX0N/jyr1TkdIImEW1z6ITH5edFmWdADijrj41dXTVuQTVarn1CvX1Kmq0h4FVheN8e+DE9uXkgxAXJF0MEqH03EtH3kmpHOMGe1vauAq33/HGElExpRZuAEgbpyQbcU8vrR34o1ziUbNIzkIDeZyvU2V/O7Vqw/XRPngXOQDALKDgMgOgLwCIEtUqv00Je1eoRsFQiReyUEYta7BFItqsPfI7+N7ew6ZUzEFQF7uH3tUGBzQoo+Rx7rf77hnnvPQ4TFQff36uttl84oP/+3PXzt9NwJAXNDdddcY/FXGAhUay5dKV137GDEMqmve6Arxs56jEfMK0SsrunxLBKc0hCUByMuVP+3+1m7Na3IGAicnj03vno9y7MT6rWsDYI2A892v7x0IqTYBiGufFiwNR/z+9dDWcDQ2utsk6YkTsqVZUDyk090CW2VTFMW+z+cbXjTiT/UCgLxUotj9NHrY7h9sAwflw6B7MjxI/vKcJ7KQTrVb4JGU+fb2Owtj2fpKfEG3MmqpDkCWAAgPQADIMOXr5XycYH9U/Rfft+9wbzwRz5eangjp+heHbtOfflIt7wt3C0u68AgRAPJSFXudBcWq7cEPvyp8d0SWWRfh4h//aG5f12peODqR6PPE1WT6d8O/fY+9A0kByEt1dZXvbthvSpP/9EMvslgn699++cUC5ODAw4fnj8qrsFHaH3k+l2PdbuHItl7wXyUgZxHmcJpFWNiWg5Bvi+bW44U3GgXMORf6ifzeDDHvc/H4VffKQfoYgLhxvB0ar7Lyn/3NPfnffujtWPHGuLJ0terYQfLhV0IYYe+KRdMPjSR1aweEAJBFANkDIEsCpGhL9fp6RX7+uddq/In8o5/yeSTnI7YD9KRFE7H1pxYFEYC4oLe5Z3gYecd7Vf3nT2bz8Z+H77sPlrOjmezaFA4GW9Par2YTrBBLAhAXxDnn+nt7/5YiJJX6fb8urq+9cnw4jgyGrzgrY+4kbO39l6sFJPP0ngZzbIXcG+xp/e7eIU08dLxz0gxx6JIHIK4oppkZnT3EjAT23vbBET/oU/XAIeqYPep0fIAp3d5SAAJAAMiyZbZMyJiLcB/2+hsf+Azx0s3QMk9atqlLHGIQ2+Z5D1c8aJnPjd5WZ/rH3ofheBDrp+bz1pwsRRKLjX/2TvUnkwDEHYnmjTEHDveVyOHhg5eqp46QUWZREE7GmWKDUd5Tt4pudg5ipfyx8W7Oh9+/99qd0OYghPBjvujwVD2VKmz5VIerBcS0iXL5uDp+D10Qkp485B12pOujVtFmqXKZ5wEIAAEgK0xTjaRPuzsb/DHayGnkOc6jt0HftxWFfCyfWYUuljWNSO0zngcgS9Abab9cdmgb+pnm5ZvkZTnSrpKujtttP78LWj0g5j0CvK4o8dOBg1is+I0TtLwJzYHb2882OwQgy6EkmdQVFqjdWLMmcNylj7CHhw04XpSXa7UYxYpTqxD3upbPRw2/ZsyXs9q2Sep1PAz5fLVhyg1AAAgAWXWqx49ciXv49LQh7EEo7H81Gue7kX6s3UG68iWG2xuxSE8g8MDvjtYPyHVtww5ZtdoBICvUb5sGSKHQBCAr1DebBkipBEBWqdtNA+TxsQxAAAgA8QogbzdtAslsVgcgq2zmpjfskGkaAAEgEwFpAxAAAkC8AsjGNRoliQMgAASAAJAFFY8DkJV2K1xuHCBvAMgqAdm0bidFKQKQFSq7aYCkUhUAAkDGS1UjAASAABDPALJpyyTk82cAZIXa3zRAotF7ALJCSZvWcU2ICEBWGWJON+yQMQZAVqmNu/QlCJNmyKIABIAAkBWKegqQGe7bomS2Y0YBiKOK96enFe7KXxwoMlHtj7FKsVi5isymSoU7W+q1sps3XL1e8Tt8dNHvL54any8IXNH8esafDnvdG8+8qZzCQcaoIhBCBIGRWSWYyybMpZCwvCF/tNYvlKMYmaW05qs5DoCMawROOsLOR3MOCeb+S1w/MDa1sNMBMfd48waAjHlDgTFhDlPo7pmfC5Alnp21bolC40rKTEiEyQwJxn+VigxAxgBiO5juyoxGywakQ6YR4GAqgvDMESMROAgAmQTIGQAZ1wjs+XDXagVhprghDA5vKDQmsgx3IkscjxGzwl1+PmwdYhHHoZk7PkkVhgdPEObLP6dVhcXPEh2kNRYAYVzC4Si/Hw7i7CCSypjCUsrRUV5VGYnH1UnK56OM5c0NYu6az7No1GE3ZjyRSilGAmz+FV9ifG9LKUVVJWX42fGoOUtWNOr0ReJG4Q3HyOeHTx6pqpJXpEoFgMygSGPmXZu56fsk2svvo3R684NJyzxfOw14CvP89gBC3WyQjU4iVZ99PerPpel1l42t5yAFg8HxT5a2e74h0pvG1i2FAciWAbLUmSf9swPSeTd9ny/6hDiwLkAcxtRu0xXd7uWFj4HaxUXR/XVaKnMAUpi+z7rmXcjlJiRI2e2+ldsKMZX2+W02qxqN0lSqlCufutZGywizd0AEpu+zvyZA7iat47vlM5aNtmLCxWI5UYrnzbab9vZtTH/hZbEkAyBbBMhIa+a+fXDQ0BRznmypcfdJ1/vJyhwtONkfBSAABIDsTohxkiietq4LmsaMFEVRAp06F4nM2nNSBCDbD4idldPTh2MpxYyWT0i6vo7p065IVY4AyC4BYs9mL3M5n5YyL1WlqkGd4xwjz2lclgHIrgEy4hry/X29dZdVFAOV/OPjrW6qbaher+vlmgYH2U0HcXQV7vIync1mNUOSoaz28fEYgAAQAAJAViAAAkAACAABIAAEgAAQAAJAAAgAASAABIAAEAACQAAIAAEgAASAABAAAkAACAABIAAEgAAQAAJAAAgAASAABIAAEJcA0dZUFzkAshmArGumhdzdHQDZBEDWtTiVOT+IDEAAyDilHx7gIJsASHVNgARvbwEIAAEgmw9IbT1lSyQSAMTzgNA93tfIrUG3BxqauZvhIM3rxOp18O4hV68DkE0AxJMCIAAEgAAQAAJAAAgAASAABIAAEAACQAAIAAEgAASAABAAAkAACAABIAAEgAAQAAJAAAgAASAABIAAEAACQHYDEMkjIiSb1Q4/St21ZjZEcU1jJLjdgLQ9oke13a6b/9Xbm6PTN2/08r2Hq5cCEACyZEC88lVqAR5aVE/XFpXdQMNjgKR9qGe0Yia1Yt6iMlyKJrIcplsICBwEDjIxxCAHeWEecl98HTjJfizU6nURgECOgAS2F5DYLep4cYmJRFRQEufnerv5VlGIeiduHSBwkLl130tNI38hv/76yj6N2r1EvvlGHCavlAKQndPZWW/jF+XXMM9/iPB8OCwPmjTVKmvz92YPSQYOsqVZhTzDTpVKQP2R5/f2+g986P4zEKkLVYSYHU89ePrxY7aH09PnjAijaZmufSDEABBnQMIAZPtqXVVTinJ4WJ1SqyYBSe3kZECHkYjw73/4fSQcttgxJSkKL7+oWxWAeC/5DDHGvlK/Opxh36xpH3tdPGQTk1f/+S/yww9dPswktlDIIgfZMlUIYZam71pm3eAxks5++P571nMQ00pIhZcByJYBEgqRWQDJkPpo9mEGF9n4+d1dst8Dwp+SzEsI8QwgnapTprWLKpKupgPicziprCP4Lev3hhg/zOmHk0kAsnWACADErs8IMXMDwm4czygjI1Fts9pz+c1OUjPcp0Ti+HG/4d4wud0ApN2OPjlk8gCQx47Njol/I3KQkeZ4xu/Xaw0tbobaw+rr17FmvQI05gNEUVpjn9Ps62K8fbshDiKKlT/E3u7vpxgRVDV7HdPrwGFxQAh5drHmwwerP4TnQ/acI8m8DUix3rm+3mdm4y0qvUvrevFszJ4IMXMAUkmlnLIPS//SRo4nCXsNEJqslMutXDUeMr7okVTN5S6KGVS9q4BclEqOLRie//ln9c3I4+qV5wARAcgaAfmTRwERi8V67ZusqoYEgZVKjdefOBH1vSxAWvv7DjE5zIe/U9Uf7c9QPqu/HJCFa5LSYvn8ulBIGd/o6Ei7zTU5LoladgEQwhiZLFt2atqH/KdffzVe9X3k1ZN3rLZeBMhCYwUqei53sq8IRjGjWV/68pLL2EwOehkggmAcWMZxdIJ81eogslhJaJF9d37+yukd91/sILPVq3yj6zVfNW+WXpCur1sXpwghS3IQ4xBP6QBtNxojf//j6JduLe092zV6s8QchFYq+kEga07gQVLZ7G0tVux37IdRmcsLMQKZUjV+xugw8eD5P/8wEnHcSjTnB+TvAGQnAaHUHmcyZ2bvVlaJGk6X127P9To6PVcHiJnZsWmA8MMdzJFkr0JjT1iRuDUmNXJ1oecKR1b54tVcrszdoL7WAAgzs7ypXe2M+XvNWLPv4+d/9n1Dlp90wZclNwDx+QhR46VSosklKfq81+sgMwFycFAY/vHLL7eRLh3Pk4T9shsh5vY2jbrxUCtGmGE8iM3+v//+b+PaomHiypjU7Eu62yDXk9TpDiLLX3L9Xqxw2MTAGYTqtStjUgHIxgHCAxAAMlGVUC9b/NH4d/SetyUhdPDDH33RlQ8AssGA8DXVxKDbvP2J/DhMUeW+tYiiFONdufUSgGwgIFSyWhZ9Qv4SiXQ7yYaTQPh8ystKA0A2GJAkT0mzye9ZRIT5DwnjVe+7UUbs8vGbJEVecKkegGwyIOYVjyQvCDV7F+poOppW220eDgJAAAgAGY8J+ZdFyLfPMxQtnzEDzT2S1J1NUi3H+C70D2sKqtGLdeVyNCA/NxUAsvHy9wAJzfyKFst3OqMPpfPxeNmN0gAQV0VdePWbuUJMV/rhIdHOK6IRUsR2LlclhVOXvhEAcYmMUqh72hPXJMxXgkir0R3kLCWCn9ybzR+AbB8gwQQA8ZzCpQvrtwujuCuLAbIkARCX9Nh2652KcyepY1oqroz7AiAuSXENEM4akzqHg0zgIAxAvCLNv75m7jLnRQAgbjkI59Y7IQfZSkmu5yAABIAAEAACQCAAAgEQAAJAAAgAASAABIAAEAACQAAIABknv3WxbuoMQwBkNwChDoB0539gAASAOIcYgTFzGsxJCytTAAJAeAACQMyJ4a6S4bPKfTIpnolJQ3p3ksNQ6uws+VyRZHKls94DkDUCYo4JLGQVhRl2kTKSDsFaDXUwatl4wkFRJokiANkRB6Ft1uxuhUeTVIME1ZkDWr6Gg+wCINaQYi5bNLdHSKhMmeWwmQUgO+IgkUjOnML0ScJ5013qQRgHiA5AdgsQGYAAEGel08yxmTu5q71ZBSA7AIhhG5VotAJAAMgYhflU2nFyawACQCwVGjyfmQBICIDsNCBnZEx3FxwEgAAQADJVgk4BCAAZ14ahMcmcJxuAABBHXV2RZK+xuymA7O93UMtLB6QPhCBM2F2KS5KUV+/GTACzJkCOj8srGYQi77aDmOuGiXz2+nrxQR1rAuTkpA0beMG0TbOGGOMDaDN/f794WQDIWgGRAYgzIJqGHGRVSarwonNxTYCUSk3U8koAodnci9K0FQPS6ZTL5Vj6IpXyxTrL1eXl3zt68+HhsrjTgLSiL/ukFQNSrRYKjS9ZHyHxRnW5KpUK1YbxIfvSvKWsl1tlXW+aLPfVnqD6QFxfxYH8fVUGOhuo13VFlwaIXIlEk3STAOlvVKvlVX2mvj/vKwJZrWQCZvzfl/ZcUl/x50oNpPYVHWg4ZJyEAsnlOkg0+tIFrAEIAPEiICvsam9rcwMSW1XZmqUl5SC9sPJZkngAAkDGfnX28vn+Acj2AiKHXDjIAGQLAaG9+yyr1q8MAAEgjm+eN38ixAAQAAJAFgCEU+vW73sAAkCeK5MJBHg3pvYAINsJSCwWdamI2w/I3HcfN85XVbZPjwu+UJsCCCcIRQCyBQ5SWAogMq/E3PoOAASA7Dog+94F5OJ4UUDqE5/2Se4xDAd5puP0yhxkOUkqZ95nKQOQ2VSf20FOVjZe9mLRoz85xEQfeFmGg8wofW67zdZW5iCLtmKkSYdPq/YyEQDirNGJ2upzx/lgZ+TNePdOR+sN7eHPt+CbNMYvrFyvCy/vYAcg6wNkD4CsGZBKLlc6bjx++VJ9d1w9PlbJvMOdWfTk0fj1rlRqNKqPuYiLZTs7S5fsn0R81S9fGifzljBIsj7fY6HhxL4g1N2843TrAJH5NnFXdRcd5ObG3bLdPM9ODg7cJHobHUR37fAL1s9TF8vmLy4NEPPKXJiPfXR5avUtBKTdnxq2qzF1bz4x7slRQNy8i9jvJ8zhg5j982YhVyDdr2ZPRUww/Hm3jyscZGI9CCEicG7mRzeMhVx0EP9ocs6rOR6ATBNnnl9TDmzIcg+BhGaoLTcBKb5RmSMi5vIcCwBSGW0+v9N4ALLRgNwU/0t1RASArAyQsC4I7sUY41/dxcJFKt8dKipjbpVw5MY8jhNEADKDWq3zWKsVM3Qes34+V+yg1dK01oHjkwM9xGLpuwdXG+FU/3/NTqv3qQ99tc6zWSnduet0zmdS95sZb2N/bzEaXcJEBtsHyN6sO37+zHtHsViOvrB/6/H4eAnLD+7wNJiJhIcAOT8PvPAdTkk4vITlKQHIZgNiXirqJiLEv5SCARCvAHICQADIEkNMYUlLhwGQzXaQfhfIQd4alSADEDjIM93zosjeLKlgAGQLHITP52vLmnUcgGy6gxjxpdVd1DST4d3vCAEgm+4gAAQOMkWcYKJB+7gAEDiIXXKyuszbNADIxjvIa4UHIHCQsQlIXaDLCC0AZFscRGgttWAAZNNzEAACBxmXnhr/JOmWByBwkHE6EAQegMBBxoljxSIAgYOMk5j9vMT2CwDZeAdJq8svGADZYAcBIHCQcTIDS1K4ByBwkHH5h8izOx6AwEHGysW5LgHItjkI5U9PCV12CwaAbK6DiIzVV1IwALKJDkL50vExD0DgIAAEgCyUg5QPk0kAAgcZp2R3XqwMAIGDOKr0m7yqggGQTXMQkecD0uoKBkA2yEHMW/kpH4mwNgCBg4wH5AyAwEEmHURSdnO2fgCyZTnItaatsmAAZMMcpE5WWzAAslkOQo+a3Q1ZXsWlujUAYt2CzisKt66qoP3FPYLB3iPyBjlItcRvuYNkwgDkBQ6y/YDwvDkb39FRm667TjYxB7lM0eTWA2K4SHy1mfhTdV0saAESFj0CyAwOEg6TlRvvqgHJWIn4J3NxpHVrEGI2xkGqVfMaP6Vb7SDh8Dlpr7s6LDo7ncHmZjhIOh7neZ5ut4NEEglGV30WPMlSadpcnoV1ly0jD3RDHGQF91kCEA8DEgAgBiCcls2uvzbK9jV5dE80dac7iD/wzToi4ooB+fi5fxavz0B4/sy24BNL8nQjHOSSraVgKwZk3ekp7f6fHQLyLrPmItVqvTX2rKVOv3Sz0OeGpocyuwBIhPeEOkNALtZdlvYf7AEv5hztKM2X+V0AxCO9DuFhjaw9vsiyHRBxXA/IunoWAQgA8RQg1BuEaL368EKbij8e4DHmCgStM0bhIKtUf/n2dtsDhYkMACk7JhqyKLVaPABZqXo14oGSGC3+YYBxjjAdaX3FWzEg1CuAlKwKKXijMO/6EWbM89kYzyPErKOh+8kTZaHFHiDn4wDRd8ZBPAMI75UIYw9441ziOAZAAAgA8RYg2SwhJa8UpmHxMTYVBSBrULtNSN0rhSlOzogAyBoUDhPvtKn4Sb2oAGRtQcY7ZWlMaOQCkDVJb3unLPWJbW4AAkAAiPcAobKHypLPk3sA4i1APKVG44gHIABkrE5PdQpAAMj4GENFOAgAWVAABAIgAASAABAAAkAACAABICsCxHajMQUgAGRUolgORrsDpdTHR/0egAAQAAJApqoXS+5LgqAd9C6XVmq1LCmJAASA8N1JLvkSObDuUqfWPCDWv09EkgAIADFULgu2BffkwUX1YJABkC0DZJ5Bm30QjoXekvLis5fXAcjWOYgsimImEvH7Z6NF5E8kazETuTsnO6VhO2sABIAAkJ0KMeHeRBqCMGMZC/s39gBFaZUIncEjAGSbALFaIFkTDhOR17PMwEiLoZvegh+2zOM4lTIavubTAGTrQoxCSHfOyLuZukDIlT0SmZthmb/58kVbkoPIAGTJamenAtJVbpZ3007GtIJ6qxQswUEoBSBLdZApgMRnB8Q4mwVxTHW1fMhBNhOQi/1KRczwoqOoKKpzOMjnz4/jnkoSAAJAVgyIEVzCPAUgy1WHpVJmQ+W5oowJJEX6SeoMgAiCf1zaKLsNCLV34gOQdajbqs0KwqwOwrHx082LisuAtP1nxWKyyAGQpWqaQdNMavYQk6tWx77jcdBdQGjP1wjdBR/xpoN0Jc0OSCkWGxNgikVWd9lBSK8DDw6yZs3hIEc3NxlHk+KOjtJmopoEIABkhYB4ap7CnQVk0FHm47hIZZKK9onPzVBjrgD86kPk/SH75Xf9ap2S8QCQjQTEXP+PCJqq5idJIhFruaDkoJci+cufjRf+8Mdvh9W6cLoMQLzuILWpu6qRyNA/jP+Tj6kfn1br8w6SBVfpAyAeAsTKBqcDIj1ZzEL9YnZmyb0fToAMHi8mlDkX5gAgG+cgyZN0eljtcr0edahWAAJA5gDE0mmtxuZf2geAeA2Q6c3c9sjMtKp68dwpntXn/Z2y2NpPAMRLgLCZcpDT4WTSslmDvZaJPM5BzmKKMlzN7/QUgGwsIMJsV3MPDy/4TA8I2ao7eVyIub+vSWREug5AtjzE8OVyyl6DGVvfhmwHhDY18kzRqCaV4jNJUhQfAPGI5huTSjKV/mYulx2BIywDEAAyGyA8vWg02ACN7oiTu7t2+fJ0NpXLnBX2GABxU4OZWunSACkz28eQ9rCPLPwsSU22C3m7g8zfisHVXPc19whOOh8gNG5bADgmfSuPNHKfNnOprleFBZJUiiR1+aqU0y1dL09Q7PJSb12w2Ycc8qJIeaIP71TpkKO//vV9d/uVbLqJQ31y1YUcxCqWAECWovo3jIU0XyCbfZwg6fGxkR0kgzMAYoWRG9K2edVPf71NvOonInt7gxzkaWTyMXJ+PtfYQatMIQDivu4TeRZMJmfdXTLHts8cYoy3rwgcR3sY9Kq8m4jYk1QA4nFAxPUC4pBWzLv6k3WrBnIQt9sxOaO6fW/mecnRXEmqqTYhacdkWKZ/wZBD7wJCaU5iWnveMzU+NyDGJ+0z/Xkg0RXlEYB4BBBq63uQzYRDlwg50Rd4pwUAMV2EsYsLOyI0px4dHGDQssccJJk0p23huKygXYjiQm+xECBGulHXNMJysXa7ruf283lSrU/MQQDIGhzEIqIuCap6Li78Tos5SK+vJRfQNEXyNTlu5GIdAPGIg1hncVPuZwYrB+QpsQDE04DIAASA2MRVidps8r3psBeeqMklQMxGLgDxDCD6LSFKWnQ+i1cBiDzGQgDImgExq4ErMOlaFF16x4X6QZxLZgQ5ALIuQHqn7FmQMZY4c7FsroUYOMj6AOmesmGazrPbSsXdsrnlIABk/YCEAQgAGZd4GHAQcnzqftkQYrbAQS4uJCItaTq3FznIs2l1AcjKAaG6Rvb32y9uzrrrIGfX9V5ZZApA1geIrmlEbTo8Ia4ZEN4csH4SQYhZGyCUVoqpqHR+PnQMupRp7RcDJNx7UbVeByAABIB4DRDaDgQUpkdczzhcCzG2O6KO6zIAWSkgpwWWSiQqqynb4Map9FwvY/ab5pim1XEtZjmADBcF7LVZEoQouZsFPsS6OlPpdILBu/RMqtVqsYPmoJal2uf0rMqlSX9akYEe2zKuxbgNiDzMLoxNv/83STtZPNPQq0KoUHg48M2md2/fBhvBQQUrQV9ithe+fh24fX73/r4OB1lOiOkC4c+l8nmf4dQLXacNlyVCDq27EeYETGOmBEE4eEGISaXKfpeXRQUgYwHJABAAMqr7uzv16J1uq9p5KjkZi31kUmfB0DSYq/31XC8LDfGI5ypoxSwRELETFwqFXitgjmVAu9mtv8nUUqmVXKRYFlKp2Sexs7+05yCHrdGPBiAuA6Jns4LWXvBtI75oNPqRy7yobPH+kmTzOYgJSPbT82oFIO4BQi80onU6i0WGev0kxL5xYXDI4exTcdtVjRmNWgpA3FH1+fW2+vGxoC56De+0QOLx6ytXyobxIF5wkDGA/B2AABBTjY69ZULltqaqv/22WGKp6xphNfcu0LgMSMINvW40DsguTUH1zhZLuAJj+WaF5xe42anYPFIl6Zy6eQXPZUBybqh2fd3p9+PvBCAn6e6UUJXKLWHp8BxL7AwnEBQnJxx2AAAFN0lEQVTTmqYq7bN5e0lmAkQIIcSsUTRrXqbgDoxGaaAyrHR55npOJu8Yebqcj3uACEKIMXbnOUB2ZQoqmfcFv/kmH32sL/Tyoo8JQqNobYcdrOXFgAhmX/tXX9W8BoiwGw4iipk6EWq1U8sv5unUojw99Rl0JMRllu/Q4COq/reipAHIegDJvAiQt8sGRGJMVeKH//FDzGuAdKc53HI8MrH9fXIiNRfJXLgsi75+nVxyCaWoGj/84d+//sulF5NURoKBQKP6W9W3sKrXBd+7et2TeLQ1sm9OUT7tau6zfIK2JInlL1cw6jB8/N//9R///vW7//2f/+PNVkzMULoZO19YsXIsVmq1qMfYoPrjI4l/6hZrIiCy7Zd1k2W4xoRsubyib3TVvNTbf/gD90b0IiCC4EplvO10PNNkkc0OsHaVSefngyqe5iC2cSA1ls8f617DfdP7QQIPD945RvVGNKqk7+0PzTSqXS4GgyFSuIpENjjnAiDLB+QMgNhCjAtvaNhxtVZb73Hp5RHh+3sppby9enqddSogmYw/kBcajQq/4fKog5zEvLAoHPc5LgitosMzUwDRq/k8CRa3oVnvIiCCWw5ihpg1Owjl6+/epRRfbwoPak5ZmpkFkIzY6UgsXuvmHU+6z+lOAxIKhYYO8tJD8Vs6vc6jctMR4onEhEU4xgAitqpE05oivz16GSB7tm3GQizU60l98XWngHUT/HrMo8YYa5xNRJxWnwNSSadTRGvyWyb3HET9yryG6BIgJx4H5BiAzK1DRTVMJORKR9naHITeMfaWmz552PWT+wMyt0ro8bHOb5/cA+Ty/+qx82bMnVNoLQ7SkSTBV5whfaL0ZNjRK9evjSbLbzq/nXIPENnNYq3eQS4kIz40+4NDp32Zt737Xuv1RlS9tt3MEgYgK9EqHGSwsCNtaoRIF/NEopKZg1xkiaLkrvrNNiqH4SCr0sochBaLbwVp7iuDDVVRiJZ4bjT3AGRrHKRrIwAEDjI+Z+J85uDvOXv1RDF4Qki5HOF3Qa4D4k538vIdhCZPThj7LM6ZafsPzNVKm48tfke0ow5y9VohsdhcV9Nk3u+/zbOq1dlxHAMgW5KDdCerpTZve3ObSqmBOp/JTHlhr6nTHTqoB0kqFTztWQwA2VYHuY8J0ud6nU5Fyi7u8ZEotfve4+aNlgBkW1sxAAQO4pQyWz2ktKMobP8+PNvrrDEgxk8uS1gsJo/mrwBkexyE9tYnNipaac83eRgtZwlJObEAQLYqB6Exzajo+VqmyVpNEaSWNQkuBSBb7CC6Lgn7lyMBZ3Jr1nSbHIlWqxMu0AKQLXGQdkmQpPJcF9FOHxk7akQmwwRAtsBB6o0Gk3JzdogXieo7m77MMQDZAgcBIHCQJ6mDpW7/aPEtY8GEf4GYNNPFJACyyQ5yWojHU4HFJh3taDwA2docxLSRSCDKaovPLtKpApBtdRDKZ9KMCbcvuh22eQtAtsxBaPf+xkpFZ+wL99LlzmPZ/hsCkC1xEAACB5mq+0Q8lZLq8gyNnClqIQfZOgeJxRRWaLu0iPVFAYBsk4PI5Ud3b6dvlgDI1jhIXdOIVnb1jj4AsjUOUq8K8U7H9Zk4AMi2OAgAgYM4yRrAcxoUhHzubBkfDEA230HC0tHD6anVgKEABA7yXA19SXQAkO3IQaLDsYAUgMBB7LLatErl6SMABA4yDhA4CBzkqaQ6AIGDABAAAgcBIHAQAAIHASBwEAACBwEgcBAAAgcBIHAQAAJA4CAABA4CQOAgW6D/D4ursQzH3VwrAAAAAElFTkSuQmCC;imageBorder=default;dashed=1;strokeWidth=3;" vertex="1" parent="1">
          <mxGeometry x="421.5" y="65" width="256.51" height="240" as="geometry" />
        </mxCell>
        <mxCell id="I1JThzbMCgrEHhUARHG0-22" value="" style="ellipse;whiteSpace=wrap;html=1;aspect=fixed;fillStyle=auto;strokeColor=#FF0000;strokeWidth=3;fillColor=none;" vertex="1" parent="1">
          <mxGeometry x="456" y="175" width="70" height="70" as="geometry" />
        </mxCell>
        <mxCell id="I1JThzbMCgrEHhUARHG0-23" value="" style="html=1;shadow=0;dashed=0;align=center;verticalAlign=middle;shape=mxgraph.arrows2.jumpInArrow;dy=7.8;dx=44.02;arrowHead=55;rotation=105;fillColor=#ff0707;" vertex="1" parent="1">
          <mxGeometry x="494.64" y="248.38" width="108.07" height="82.78" as="geometry" />
        </mxCell>
        <mxCell id="I1JThzbMCgrEHhUARHG0-26" value="&lt;font style=&quot;font-size: 23px;&quot;&gt;&lt;b&gt;Transmission Network&lt;/b&gt;&lt;/font&gt;" style="text;html=1;align=center;verticalAlign=middle;whiteSpace=wrap;rounded=0;" vertex="1" parent="1">
          <mxGeometry x="200" y="160" width="230" height="70" as="geometry" />
        </mxCell>
        <mxCell id="I1JThzbMCgrEHhUARHG0-13" value="" style="rounded=1;whiteSpace=wrap;html=1;" vertex="1" parent="1">
          <mxGeometry x="708.5" y="385" width="175" height="370" as="geometry" />
        </mxCell>
        <mxCell id="I1JThzbMCgrEHhUARHG0-12" value="" style="rounded=1;whiteSpace=wrap;html=1;" vertex="1" parent="1">
          <mxGeometry x="418.5" y="385" width="175" height="370" as="geometry" />
        </mxCell>
        <mxCell id="I1JThzbMCgrEHhUARHG0-11" value="" style="rounded=1;whiteSpace=wrap;html=1;" vertex="1" parent="1">
          <mxGeometry x="228.5" y="385" width="175" height="370" as="geometry" />
        </mxCell>
        <mxCell id="I1JThzbMCgrEHhUARHG0-2" value="&lt;font style=&quot;font-size: 23px;&quot;&gt;&lt;b&gt;Demand Bus&lt;/b&gt;&lt;/font&gt;" style="text;html=1;align=center;verticalAlign=middle;whiteSpace=wrap;rounded=0;" vertex="1" parent="1">
          <mxGeometry x="186" y="335" width="180" height="20" as="geometry" />
        </mxCell>
        <mxCell id="I1JThzbMCgrEHhUARHG0-3" value="" style="verticalLabelPosition=bottom;html=1;verticalAlign=top;align=center;strokeColor=none;fillColor=#99FF99;shape=mxgraph.azure.user;shadow=1;" vertex="1" parent="1">
          <mxGeometry x="266" y="595" width="100" height="100" as="geometry" />
        </mxCell>
        <mxCell id="I1JThzbMCgrEHhUARHG0-4" value="" style="verticalLabelPosition=bottom;html=1;verticalAlign=top;align=center;strokeColor=none;fillColor=#DDFF57;shape=mxgraph.azure.user;strokeWidth=1;shadow=1;" vertex="1" parent="1">
          <mxGeometry x="746" y="595" width="100" height="100" as="geometry" />
        </mxCell>
        <mxCell id="I1JThzbMCgrEHhUARHG0-5" value="" style="verticalLabelPosition=bottom;html=1;verticalAlign=top;align=center;strokeColor=none;fillColor=#63DFF2;shape=mxgraph.azure.user;shadow=1;" vertex="1" parent="1">
          <mxGeometry x="456" y="595" width="100" height="100" as="geometry" />
        </mxCell>
        <mxCell id="I1JThzbMCgrEHhUARHG0-6" value="&lt;font face=&quot;Georgia&quot; style=&quot;font-size: 17px;&quot;&gt;&lt;b&gt;Aggregator&amp;nbsp; 1&lt;/b&gt;&lt;/font&gt;" style="text;html=1;align=center;verticalAlign=middle;whiteSpace=wrap;rounded=0;" vertex="1" parent="1">
          <mxGeometry x="256" y="710" width="120" height="30" as="geometry" />
        </mxCell>
        <mxCell id="I1JThzbMCgrEHhUARHG0-7" value="&lt;font style=&quot;font-size: 17px;&quot; face=&quot;Georgia&quot;&gt;Aggregator&amp;nbsp; 2&lt;/font&gt;" style="text;html=1;align=center;verticalAlign=middle;whiteSpace=wrap;rounded=0;fontStyle=1" vertex="1" parent="1">
          <mxGeometry x="439.31" y="710" width="125" height="30" as="geometry" />
        </mxCell>
        <mxCell id="I1JThzbMCgrEHhUARHG0-8" value="&lt;font style=&quot;font-size: 17px;&quot; face=&quot;Georgia&quot;&gt;Aggregator&amp;nbsp; n&lt;/font&gt;" style="text;html=1;align=center;verticalAlign=middle;whiteSpace=wrap;rounded=0;fontStyle=1" vertex="1" parent="1">
          <mxGeometry x="733.49" y="710" width="125" height="30" as="geometry" />
        </mxCell>
        <mxCell id="I1JThzbMCgrEHhUARHG0-9" value="" style="endArrow=none;dashed=1;html=1;dashPattern=1 3;strokeWidth=3;rounded=0;" edge="1" parent="1">
          <mxGeometry width="50" height="50" relative="1" as="geometry">
            <mxPoint x="603.5" y="570" as="sourcePoint" />
            <mxPoint x="706.5" y="570" as="targetPoint" />
          </mxGeometry>
        </mxCell>
        <mxCell id="I1JThzbMCgrEHhUARHG0-14" value="" style="shape=image;aspect=fixed;image=data:image/png,iVBORw0KGgoAAAANSUhEUgAAAgcAAAHpCAIAAACZZQgDAAAACXBIWXMAABJ0AAASdAHeZh94AAAgAElEQVR42u3ddXwU596w8UDhlNJCobi0uEuRFmuhQNFAKFqsOAVKkWAhaHB3d4IG9+AQIO5CjHiIEyMhbn3nPHmfu/sgYRMiu7PX99M/zkl2Zye/XebaO9md1foHAID/pcUIAABUAQBAFQAAVAEAQBUAAFQBAEAVAAD5WQWTHCmzIRPlFNXPaZIb9vb2Pj4+UVFR6enpPEQAaGIVtm/frvUBaWlpymyoT58+Wh9z6dKlIvs586RGjRobN25MSkrigQJAs6qQkJDg7+9vY2Nz4cKFXr16KR4ZldxQbGysl5eXubn58ePHv/nmG3H12rVrGxgYSE/ApWffKSkpBf3zLFmy5NWrV+9+PTIy0tPT08zM7MiRI4o/Xc+ePUeMGDFt2jR9fX09Pb3JkycPHjy4VatWipdp2bLl3bt3Fbc2bNgwHjoA5FwFRbdu3RIHxI4dO+Zho127dhVbkCJRaD/M9OnTpVv86CFbqpTYvcOHD7/3Mrq6uophaNasmVgxSIWTvtKjRw8ePQA0ogpr164VR8MFCxbkYaPSMTT76qVLl46Oji6cn0TaVekW27VrFxQUlPMlpWyIHzCHP3WEhoYqhmHOnDniWydPnpS+0rZtWx5AAORfheHDh4tD4fXr1/Ow0WLFimVfvXXr1oXzY2QfpqtUqWJlZaV8tL744ovg4GAlVxWNGjVS/Nb8+fOlLw4ePJjHEACZV6Fp06biUJjzQfO9PDw8xNWlwBTCz2Bra5urv2aLaLVs2TLnS9rb2ysuF976s3OHDh2kL65Zs4aHEQDZViErKysPf2pWdPnyZXH15cuXF/QPEBAQID3ll25r1KhRylze3d1d7N5Hn+mnpqaWLFlSXN7Z2Vnxu+fOncv++sGDB3kkAZBnFZ4/f674J9Y8bFF67iy2cObMmQLd+8TExB49ekg39Nlnn9nY2ChzFWk9IXZPT0/vo5dv0qRJDn+EGDRoUPa3Tp06xYMJgAyrIJ7/SqZOnZqHLUrP2cUW7OzsCnTvJ02alH1D8+bNU/Iqq1at+ugLkBQ1bNgwhyo8ffq00H5YACiCKixbtuwTX1TaunXr7Kt//vnnycnJBbfrxsbG2TdUvXr1j77uSBgxYoT4AZ88eZLzhSMiIhR/n+bh4ZFDmaZMmcLjCYDcqjB48GBxEHRwcMjDFqUYKPm33E/UvXv37BsyMDBQ/lrSXokXIH30VbOKb93o0KHDey/z7NkzlgsAZFuFRo0aiWNcRkZGbjfn6ekprl6gbwA2NDQUC4XQ0FDlr1iiRAnlo7VixQrx40j/+0MXGzhwYPZlpk2bxkMKgHyqkJ6eLg6CNWvWzMPmrl+/LrawdOnSgtvvAQMGZN/KuHHjlL/WixcvlH8BkhQbKTnKtOfAgQPZFytVqtR7f8sEAGpZBUdHR3HQHDlyZB42t3HjRrGF06dPF9BOu7i4iFvZsWOH8le8evWq8i9AUnwLW86/pFKcm76+Po8qADKpgnQcF0c36fieh82NHz9ebEE6VhbQTiser3N1K4on8zh27FjOB3qxUNDW1v7olitVqpR94apVqyYkJPDAAiCHKixatEgcNN86S6iS2rdvn331kiVLKnkK7jzIfo9C9l+Mc3XF0aNHix8wh/c3nDt3rkyZMtkXkzqnzJb79u0rtmxpackDC4AcqiB+WS/J1Z9wBXEwbd68eQHtcUpKSqlSpfL2PjvxqlkpJ0lJSd7e3rq6uufPn89+dp+amnrr1i3FvzAr/+qmmTNnimsdOnSIBxYAOVShXr162ce1smXL5mFbii9AGjJkSAHt8cOHD8Wt6Ojo5Oq6b71q9s2bN9n/t0SJEl27dhUvT5J07tz59u3bym95165d4rpSIXhgAVD7KiQnJyt+Fk0etqX4AqQlS5YU0B4r/lFh9uzZyl/Rx8fn3RcgSauEtWvXtm3btnz58lILpcXHsGHDLly4kNu9khIiNi4FhgcWALWvgp2dnTiuKX8CCUWKL0A6e/ZsAe3x3Llzxa2sX78+b9HK91fN2tjYiI03aNCABxYAta/CiRMnxHHt5MmTedjWxIkTP3R60Xz0559/ilvZt2+f8leUEiKueO7cufzdK8XfnpUuXZoHFgC1r4Kenp44rjk5OeVhWz/99FP21YsXL56r90W/fPly2bJlSv7iRfFDgXJ1TtYxY8aIK7q6uubvHN/64LaYmBgeWwDUuwr9+vX7lI9VkFSoUCH76k2aNFHyKrdu3erfv3+ufh2vra0t9lO6uvK717Zt27y9nlUZCQkJilV4/vw5jy0A6l2FVq1aZR/RqlSpkocN5eoFSKmpqWvXrq1Ro4Z04a+++ipXVejVq5e4oYcPHyq/h9kfzlNAp+1TPFmIxMLCgscWAPWuQvYxOs8HzdWrVyv5EWzOzs7ZF6tfv/6uXbv+uxO5qcKECRPEDV25ckXJ3fPz8xPXUvJT23IlOjpasQqBgYE8tgCodxXER1G2bds2t1vZvn274jHx/PnzOVw4NDS0c+fOiq/+zFUVlixZkodPgFA8J/a6devyfY7+/v6KE8jD6WYBQLWqULt2bXFQi4uLU34Tx44dyz5vtpJ/y333TBi5qsLevXvFDe3cuVPJndy0aZO41o0bN/J9jmIBlOdfwQGAalVB8a+4ly5dUvL60rP17CRs2bIlz3+szlUVrl27Jm5o9erVSt6E+AgEiZ+fX77P0dTUVGy/TZs2PLAAqH0VZs+eLY5rFSpU+Og1/f39s8+Qmv3pOuKwm4dnyrmqguL7xZT/lJty5coV3AuQJEZGRmKvlDyhHgCodBVMTEwUfzPevn37D50gT/r6rl27sn/jJD5wrWLFinn+Y3WuqhASEiJ2sk+fPspcRfFHK6DPDVV8i1zePu8aAFSrCpI1a9Zo/V8GBgZ79uy5dOnSvXv3Tp48uXnzZh0dnexvNWrU6OjRo9lXTElJEVfJwx+rc3v6IHFbjRs3VubyiqdOyvO7MXImrVrE9l1cXHhgAZBDFSSTJ0/WUoKenl5kZKS4luJ5TCXSMqJXr17jx4+fN2+eMofI3FZhxowZ4hMxP3QZIyOjWbNmaWtrS5t9a+elZY30xZEjR86ePVv5c2XnTFq1iJ+dRxUA+VThn//5fcvgwYPfG4MKFSrMmTPn3fNhSMfWrh8QFRWV71VQfMGPnZ3dey+zfv36rkrIryqIt8iNGTOGRxUAWVUhW2hoqJmZ2cmTJ6Xj5u7du6Wn3vfv3y+oncj9Cah79uyZfa0NGzYU+RAVT6Odh7NwA4AaVKFQdyL3VRAfMd2jR48i33/xQWy1atVKTk7mUQWAKhR2FaSD77fffpt9RW9v76Ld//r162fvyYwZM3hIAaAKRVCFfxRO/Z19MqWiIn59VKpUqYL7VAkAoAof4eDgkP033r59+xbhzotfH82fP5/HEwCqUGRVkCxbtiz7uubm5kWy5y9evMh++16VKlUCAgI+fYOPHz/mQQmAKuSxCnFxcc2aNZOuO2jQoCLZc/FxoXv27MmXDUo/yIMHD3hcAqAKeanCP/97er48f9b0p7hz507+nvgo+xRP/fr143EJQHOr4O3tnX1srVevXt62kH0S75YtW75586Yw9/zXX3+Vbrd58+b5tUHxydJPnz7loQlAE6sQHx+/a9cu8RYwExOTTwlDfr1RWRkbN27M3uf8SpGHh4eYQ1H9QgwAiqwK2SecKF++/Fsn1fj222+zv5W3MOzevbsQdl6chDUf/8o9ffp0PvkZgOZWweRj8rxiKIQ/MNSoUaNs2bJubm75tcGgoKC36jh8+HAenQA0qAoFRApDIZyJqFmzZvmYhH8U3pGn6EMn/gMAqqBa8jcJsbGx4pSriv744w9GDYAqaJxVq1Z96HMs+AAfAFRBs2RkZFSqVOlDVZg4cSIjAkAVNMj27dtz/tg7Dw8PpgSAKmiKunXr5lyFqVOnMiUAVEEjHD58WJlPyfb19WVWAKiC/LVs2VKZKsycOZNZAaAKMmdkZKSltKCgICYGgCrIWadOnZSvwrx585gYAKogW7du3dLKjc8++yw8PJy5AaAK8tS7d2+tXNLX12duAKiCDD158kQr97744ouYmBimB4AqyM2QIUO08mT58uVMDwBVkBV7e3utvCpbtmwhf94cAKqAgjV+/HitT7BmzRpmCIAqyMSLFy+0Pk3FihVTU1OZJACqIAczZszQ+mQbN25kkgCogtoLCQnRyg/VqlVjmACogtrT19fXyifbt29nngCoghqLi4v78ssv86sKtWrVYqQAqIIaW7t2rVa+2rt3L1MFQBXUUlZWVtWqVfO3Cg0aNGCwAKiCWtq5c6dWATh06BCzBUAV1E/9+vULogpNmzZltgCogpo5evSoVoExNDRkwgCogjpp1apVwVVB2jgTBkAV1MaFCxe0CtiZM2eYMwCqoB46d+5c0FVo164dcwZAFdSAi4vL+fPnL168eOnSpStXrly9evX69es3bty4deuWsbHxnTt37t69e//+/QcPHjx69Ojhw4eKn8dpYWFhZWVlbW1ta2trZ2fn4ODg6Ojo7OwsbdPV1dXNzc3Dw8PT09PLy8vb2zsrK4tpA6AKspKRkSGqULx4cQYCgCpoNOn5vqhCsWLFGAgAqqDppBiIMDANAFRB0xUvXlxUITMzk4EAoAoarUSJEqIKGRkZDAQAVdBoJUuWFFVIS0tjIACogkb7/PPPRRX4cGYAVEHTlSpVSlQhOTmZgQD4RFlZmfGpEaEJbl6xzxxeXTENOXQnYN1F77nH3cfudtamCqqudOnSogpJSUkMBMCHZGalx6WGhSS4voh9Yv/q0tOQA7cD1l70mWvoMW6Pc78N9h2XWTWca1ph9rOyH/pvuVUjqqDqFD/CMyEhgYEAGishLSo00dUj5qF1+OkHL7de8dE/5fnngeeDtzj8stKmuZ55tRwO98r/l56ZQhVUWpkyZUQV3rx5w0AAGXuT9ir4jYt79H2r8JP3X26+6D33qNvo7U6/rrBumvNz/Hz8LzLZjyqotLJly4oqxMXFMRBArcWlhgW9cXKLvmsRang3cMMFb90jbiO3OnQ1sG48x7R84Rz355lVWm7deJNDpz0u/Y+7jznvPeumv8HDl9stwgydI697xz6jCiqtXLlyogqvX79mIIDqS0p/LT3ld4m6+SR47xVf/SNuo7Y4dFlu1UjX9OsCPdzrPiu3xLLeert2u5z7HnUffd5r1i3/lY+DdluHn34eZez72iIs0SMuNTwjK9evZqQKKqR8+fKiCjExMQwEUOWj/yaHn/Qtvi2gg76eefU1tm12O2uf8Jh4zW+J9OzeMuykdLj3i7OKSPJOSIvK+qegTn9AFVRIhQoVRBWioqIYCCDjo/9bx/3HQbvsX130jn32Ksk7JaMo/6xIFVRIxYoVRRUiIyMZCFCQsl4l+bjH3H8WcqCAjv4qe9ynCmqjcuXKogoREREMBMgXmVnp4YkvXKPvSE//L/rM2/980Grb7/Pr0K9vUXODXYeDrkPPe8++F7jZNsJI9Y/7VEFtVKlSRVQhPDycgQC5lZGVGpbo4RJ1S3pifsFbd6/LgJXWzT/90D/XtMIqm5bSs/5TnlOMA1aZhx5zi74XmuiWlC7D1wpSBRVSrVo1UYXQ0FAGAuQgLTMpNMHVOerGo6Ad571n7XHpv8K66Sce/ZdZNdzm2O2Y+x9XfReZBO9xirweEG8XlxqmUYOlCiqkevXqogohISEMBBAS0qJ9X1tYhBlKx+sDzwevtGn2KUf/+WaVN9p3POo++rrfMsswQ+/YZ1HJ/hlZnKiYKqiYmjVriioEBQUxEGis1ykhL2JNnoYcuOA9Z7ez9lKr+vkYgNepPOWiCmriu+++E1V4+fIlA4GGiEz2c42+8yhox9kX07c7/brQvAYBoAr4r1q1aokqBAQEMBDIUkSSl1PktXuBG094TNho32muacW8NWC9XTsCQBVkrk6dOqIK/v7+DATyEJLgah1+5orvwl3OfRaYV81bA1bZtDzkOvym/wq7iAvSBgvunb2gCiqkbt26ogq+vr4MBOoo65+sl/GOlmEnLnjP2ebYPW+n/1xm1XCfy29XfRdZhZ8MjLdLzeTjRqiCRqpfv76ogo+PDwOBWkjPTAmItzENPWzkNWOzw895aMAii+92OveRKiJtxOe1WUJaNFOlCvivBg0aiCp4eXkxEKimlIwE6dj9JHjvKc8p6+3a5/5kn19vcehy9sV0k+DdHjEPX6fw9wCqgA9o1KiRqMKLFy8YCFRHdPJL24jz0tP5DfYdc5uBOabfbHXsdtF7jmWYYdAbJ4ZJFaCsxo0biyp4eHgwEBStkARX09DDJzwmGlg3ye0nvWx36nHRe55V+KnghOdMkiogj5o2bSqq4O7uzkBQyLL+yfR5bXb/5ZYDz4fomVdXPgMLzKvsdOp92UfPJuJsaIIbk6QKyB/NmjUTVXB1dWUgKASJ6THPo4yv+y3b7thD+QwsNK++21n7qu8iu4jz4YmejJEqoEC0aNFCVOH5c9bdKCgxKcE24WfPe89ab9dO+RKstGl2ynOyWeiR0ASeslAFFIqWLVuKKjg7OzMQ5KOsrEz3mAdXfPRzVYKN9h0ves+1f3UxNiWYGVIFFLZWrVqJKjg6OjIQfDrpef2joJ37XH5T8sQSus/K7XLue8t/pXvMffX93BhQBZlo3bq1qIKDgwMDQd4kpsdIz+7Pec1cbdNKuTeR1TrsNuJR0A7/eGumB6qgQtq2bSuqYGdnx0CQKz6vze4Fbtzj3H+OafmPlsDAusnpF1PNQ4+HJfIaaFAFVfXDDz+IKtja2jIQfFR0cqB1+JmzXtNX2bRQ5hOGpTXB05AD4Ym8RxJUQR20a9dOVMHamrU8Pig0wfVx0K79zwcq8b7i8ruc+94OWOsbZ8HcQBXUTPv27UUVrKysGAjeEhBvezdw406n3h+NwWaHzpd99ZyjbqRkJDA3UAV11bFjR1EFCwue2eH/84p9dtPfQDrQ51yCtXZtz3r9bRV2MiqZj2wCVZCFTp06iSqYm5szEE2WkZXmFn33so/eOrsfcijBYovahh7jngbv56xzoAoy9PPPP4sqmJqaMhANlJwe5xh51chr5grrpjnEYKlVgzMv/rJ/dSkxPZahgSrIVpcuXUQVnj17xkA0R1xqmHX4mZOekxZb1sn55aTnvGY6RV5PzUxkaKAK8vfLL7+IKjx58oSByF5ksp9Z6JEjbqMWmFXJ+SOLL3rPfR5lnJGVytBAFTRIt27dRBVMTEwYiIw5Rl497j42578er7P74YrvQvfo+/89xTVAFTRQ9+7dRRUePXrEQOQnLNHjTuD69fbtcz4h3TW/pZ4xPC0AVdB4PXr0EFV4+PAhA9GoxcFmh843/Vf4xJkxK1AF/H89e/YUVbh//z4D0YTFwVaHrrcD1nJaOlAFvEfv3r1FFe7evctAZLw4WGxZ+5zXTI8YVoSgCviwPn36iCrcuXOHgchycbDXRccs9Eh8agSzAlXAR2hra4sqGBsbMxA5LQ5W2jS/5reE3xSBKiAX+vXrJ6pw69YtBiKPxcERt1G2EefSMpOZFagCckdHR0dU4caNGwxExfnGWRh5/f2hGGyw63gnYH1oohuDAlVAHg0YMEBU4fr16wxEZXnEPDzuPu69MVhgXvWU5xSXKJZ6oAr4ZAMHDhRVuHr1KgNRQc5RNw66DntvD3Y49TIJ3hOd/JIpgSogfwwaNEhU4cqVKwxEpdhGGO121n7vh52d957t9ZqzGYIqIL8NGTJEVOHSpUsMRBWkZ6aYhh7Z6tj13R7MN6tyyWd+cMJzpgSqgAIxdOhQUYWLFy8ykKKVmB7zKGjnert27/ZgoXmNq76LwxM9mRKoAgrQ77//Lqpw/vx5BlJUYlOC7wSsX2nT7H3vSa5z098gMsmXKYEqoMANHz5cVOHcuXMMpPBFJL247rdsyfs++ma5VSPjgDUxKUFMCVQBhWTkyJGiCmfPnmUghSnojdNF77nzzCq/24MV1s3uBW6KTw1nSqAKKFSjRo0SVThz5gwDKRzxqRE3/JbPM6v0bg/W2LZ+GLQ9IS2aKYEqoAj88ccfogqnTp1iIIXgaciBlTYt3u3Berv2JsF7UjLeMCJQBRSZsWPHiiqcPHmSgRQo56gbO516v9uDTfY/mYYcSs9MYUSgCihi48aNE1UwNDRkIAXEP87G0GP8uz1Ya9vGNOQwH5IMqgBVMWHCBFGFY8eOMZB8F5sSfNV3ke6zr99+/4FFDeOANYnpMYwIoAoqZOLEiaIKR48eZSD5KOufzMdBu5ZbNXp3iXDOa2ZYogcjAqiCypk8ebKowuHDhxlIfrF/dWmrY7d3e3DYdbjX66fMB6AKKurPP/8UVTh06BAD+XQ+r82Ouo9+twdbHbvaRvDucYAqqLapU6eKKhw4cICBfIrIZL+L3vPe95a0Jo+DdmVmZTAigCqoumnTpokq7N+/n4Hk2dOQA0ut6r3Vg7lmFa75LX2dGsJ8AKqgHqZPny6qsHfvXgaSB1HJASc9J727RDjl+efLN47MB6AK6uTvv/8WVdizZw8DyS27iAur3nmj8l6XAW7RdxkOQBXUz8yZM0UVdu3axUCUl5wRf9lnwVs9MLBuYhHGmwEBqqC2Zs2aJaqwc+dOBqIkj5iHWxx+eSsJhh7jXyX5MByAKqgxXV1dUYXt27czEGXcDlj3Vg/0zKs/Cd7HZACqoPbmzJkjqrBt2zYGkrOXbxz2Px/0VhKkrwTG2zMcgCrIwbx580QVtmzZwkBy8DTkwELzGm8l4U7AeiYDUAX5mD9/vqjC5s2bGch7vfe1p9ucunvGPGY4AFWQFT09PVGFjRs3MpB3vfe1p1d89VMzExkOQBXkZuHChaIKGzZsYCCKMjJT333t6RrbNo6RVxkOQBXkadGiRaIK69atYyBCbErwu39YPvPiL05fAVAFOVu8eLGowpo1axhItsB4+00OPyn2YIllPd6eBlAF+Vu6dKmowurVqxmIxDX6znyzyopJOOI2KizRnckAVEH+li9fLqqwcuVKBiItCN76rdE1v8WMBaAKmsLAwEBUYcWKFRo+jfsvN7+VhKchnF0coAqaRFofiCpI6wZNHoWR14z/m4SvXaJu8QgBqIJmWbVqlajCsmXLNHMISemvtzh0eevlp8FvXHh4AFRB46xZs0ZUYcmSJRo4gYgkrzmm3ygm4aDrsKSM1zw2AKqgidauXSuqsHixxv1Z9UXsk3fftMyjAqAKmmv9+vWiCvr6mnVANAne/VYSTEMP85AAqIJG27Bhg6jCwoULNecHP+U55a0kuMc84PEAUAVNt2nTJlGFBQsWaMhPvcel/1tJCE/05MEAUAX8s3nzZlGF+fPna8KPfOD54LdOZZGakcQjAaAK+K+tW7eKKsydO1f2P+9htxGKSdjh1IvHAEAV8K9t27aJKsyZM0feP+wx9zGKSdho34kHAEAV8H/s2LFDVGH27Nky/knPvJimmITVtt9z7wNUAW/buXOnqMKsWbPk+mNe9J6nmISVNs246wGqgPfYvXu3qMKMGTNk+TPe8FuumITl1o253wGqgPfbs2ePqML06dPl9wO+dRrUJZb1EtKiud8BqoD327dvn6jCX3/9JbOf7knIPsUkLLKoFZHkzZ0OUAV80P79+0UVpk6dKqcfzTLshGISFprX8I+z5h4HqAJycvDgQVGFKVOmyObncnh1WTEJC8yquMfc5+4GqAI+4tChQ6IKkydPlscP5R9vo2/xnUjCXNOKz6OMua8BqoCPO3LkiKjCpEmTZPATvUmL3OLwi0iC7rNyzpHXuaMBqgClHDt2TFRhwoQJMviJDD3GK/7uyO7Vee5lgCpAWcePHxdVGD9+vLr/OLf8Vyom4XbAGu5igCogF06cOCGqMHbsWLX+Wd560ZGhxzjuX4AqIHdOnjwpqjBmzBj1/UG8Y58tMK8ikrDJvlNcahj3L0AVkDunT58WVRg9erSa/hSxKcEb7DqIJMw3q+z92pQ7F6AKyLUzZ86IKowaNUpNf4ojbiMVf3dkHnqMexagCsgLIyMjUYURI0ao449w1XexYhKu+i7ibgWoAvLo3LlzogrDhw9Xu/03DT2smISDrkO5TwGqgLy7cOGCqMKwYcPUa+c9Yh7qmpb794N0bL5/leTDfQpQBeTdxYsXRRWGDlWnJ9rRyYFrbFsrLhRco+9whwJUAZ/k8uXLogqDBw9Woz0/7TlVMQmPg3ZxbwJUAZ/qypUrogoDBw5Ul922Cj+pmIRzXjO5KwGqgHxw7do1UYXffvtNLfY5MsnXwKrxv29Yc/gpKf01dyVAFZAPrl+/Lqqgo6OjFvt80nOy4kLBJeom9yNAFZA/bt68KarQv39/1d9h89Djikm44qvPnQhQBeQbY2NjUQVtbW0V39uIJK9lVg353RFAFVBQbt++LarQt29fFd/btz47gd8dAVQB+ezu3buiCr1791blXTULPcLvjgCqgIJ17949UYVevXqp7H6GJbovsazL744AqoCC9eDBA1GFHj16qOx+HnP7g98dAVQBBe7hw4eiCr/++qtq7uSzkAP87gigCigMjx8/FlXo1q2bCu5hcMJzfYvv+N0RQBVQGExMTEQVunbtqoJ7eMRtFL87AqgCCsnTp09FFbp06aJqu+cUeY3fHQFUAYXn2bNnogqdO3dWtd3b7azN744AqoDCY2ZmJqrw008/qdS+WYadUFwoWIef5v4CqAIKlrm5uahCp06dVGfHMrLSNtn/JJKw12UAdxZAFVDwz8ctLUUVOnTooDo7ZhK85/9+ztpt7iyAKqDAWVlZiSq0a9dORfYqIS1qlU1LkQRDj/HcUwBVQGGwsbERVfjxxx9VZK/uBK5XXCj4xVlyTwFUAYXB1tZWVKFt27aqsEtRyf6LLeuIJFzwnsPdBFAFFBJ7e3tRhTZt2tdyeUkAAB9nSURBVKjCLl31XSSSsNCiRniiJ3cTQBVQSBwdHUUVWrVqVeT7E5zgMte0gqjCLf9V3EcAVUDhcXJyElX4/vvvi3x/jLxmiCSstGkenxrBfQRQBRQeFxcXUYUWLVoU7c54vzZV/COzSfBu7iCAKqBQPX/+XFShefPmRbszx9zHiCRsduickZnGHQRQBRQqNzc3UYWmTZsW4Z64Rt/h/BYAVUARc3d3F1Vo0qSJiiwUOL8FQBVQNDw9PUUVGjVqVFS74RdnyfktAKqAovfixQtRhYYNGxbVbpzzmqmwUNDhfgGoAoqGt7e3qEL9+vWLZB/CEj3mmlYUVbCNMOJ+AagCioaPj4+oQr169YpkH274LVd46dHP3CkAVUCR8fPzE1WoU6dO4e9AXGrYUqv6ogpPgvdxpwBUAUXG399fVKF27dqFvwMPXm5TfDMzn8EJUAUUpcDAQFGF7777rpBvPS0zeZ3dD6IKdwLXcY8AVAFF6eXLl6IKNWvWLORbNw899u/pUc1rRCcHcI8AVAFFKTg4WFShRo0ahXzr2516iCpc9lnA3QFQBRSx0NBQUYVq1aoV5k07vLqi+M61l28cuTsAqoAiFhYWJqpQtWrVwrzpg65DRRJOekzmvgCoAopeRESEqELlypUL7XY9Yx4rLhSk/8t9AVAFFL1Xr16JKlSqVKnQbvek52SRBGnRwB0BUAWohKioKFGFChUqFM6Nvox3UFwoOEZe4Y4AqAJUQnR0tKjCN998Uzg3ejtgjUjCdsdfuRcAqgBVERsbK6pQrly5wrnRzfY/iyo8CznIvQBQBaiK169fiyp8/fXXhXCLih/OPM+sckxKEPcCQBWgKuLj40UVypQpUwi3eM13iaiCofs47gIAVEGFvHnzRlThq6++KoRbXGvbVlTBLuI8dwEAqqBCEhMTRRVKly5d0DfnFn1PJGGZVcPk9HjuAgBUQYUkJSWJKnzxxRcFfXMXvOeIKpz3ns38AVAF1ZKSkiKq8PnnnxfobaVnJq+wbiqq4BZzj/kDoAqqJTU1VVThP//5T4HellPkNZGE9XbtGD4AqqBy0tPTRRVKlChRoLd12nOaqMJNfwOGD4AqqJzMzExRheLFixfcDSWmxyy2rCOq4B9vzfABUAWVk5WVJapQrFixgrshm/CzIgk7nHoxeQBUQUVJMRBhkCJRQLdi6DFOVOFh0HbGDoAqqKjixYuLKmRmZhbETcSmhCwwqyKqEJ7oydgBUAUVVaJECVGF9PT0grgJs9CjIgmHXH9n5gCoguoqWbKkqEJaWlpB3IRUAlEFizBDZg6AKqiuzz//XFQhJSUl37cflewvkrDQvGZcajgzB0AVVFepUqVEFZKTk/N9+9LiQFThhOdEBg6AKqi00qVLiyokJibm+/aPu4/j10cAqILa+PLLL0UVEhIS8nfjyelxiy1riypEJQcwcABUQaWVKVNGVCE+Pp9Pbe0cdUMkYa+LDtMGQBVUXdmyZUUV4uLi8nfjiqfOvv9yC9MGQBVUXbly5UQVYmNj83fja23biCoExNsybQBUQdWVL19eVCEmJiYft+wd+0wkYYNdB0YNgCqogQoVKogqREVF5eOWjQNWiypc8V3IqAFQBTVQsWJFUYXIyMh83PJ2x19FFZ5HGTNqAFRBDVSuXFlUISIiIr82G5rgKpKwxLJeakYiowZAFdRAlSpVRBXCwsLya7NPQvbylmYAVEH9VKtWTVQhNDQ0vzZ70HUYb2kGQBXUT/Xq1UUVgoOD82Wbr1ND55tV5i3NAKiC+qlZs6aoQlBQUL5sU/HzOHlLMwCqoE6+++47UYXAwMB82eY5r5m8pRkAVVBLtWrVElUICMifX/VssO8gquAfZ82QAVAFtVGnTh1RBT8/v0/fYETSC5GE5VaNs/7JYsgAqILaqFu3rqiCr6/vp2/QOvy0qMIx9z+YMACqoE7q168vquDt7f3pGzzvPVtU4XHQTiYMgCqokwYNGogqeHl5ffoG19u1F1XwjbNgwgCogjpp1KiRqIKnp+cnbu1Vko9Igr7Ft5lZ6UwYAFVQJ40bNxZV8PDw+MSt2UQYiSocch3OeAFQBTXTtGlTUQU3N7dP3NoFb11RhQcvtzFeAFRBzTRr1kxUwdXV9RO3tta2raiCd+wzxguAKqiZFi1aiCq4uLh8yqaikv1FEuaaVkjLTGa8AKiCmmnZsqWogrOz86dsyu7VBVGFPS79mS0AqqB+WrVqJarg6Oj4KZtSPP3RncB1zBYAVVA/rVu3FlVwcHD4lE2ttvleVMEzxoTZAqAK6qdt27aiCnZ2dnneTkxKkEiC9F9qJh/JCYAqqKEffvhBVMHGxibP27GJ+PczFbY6dmOwAKiCWmrXrp2ogrV13s96febFX6IK13yXMFgAVEEttW/fXlTB0tIyz9tZbdNKVMEl6haDBUAV1FLHjh1FFSws8ngyu4S0aMU/KrxJe8VgAVAFtdSpUydRBTMzs7xtxC36nkjCKpsWTBUAVVBXP//8s6iCqalp3jZyO2CtqMIJjwlMFQBVUFddunQRVXj69GneNrL/+SBRhSfBe5kqAKqgrn755RdRhSdPnuRtI/oW34oq+MdZM1UAVEFddevWTVTh8ePHedhCeOILxT81Z2VlMlUAVEFdde/eXVTh0aNHediCdfiZf9+/5tCVkQKgCmqsR48eogoPHjzIwxYueM8RVbjss4CRAqAKaqxnz56iCvfv38/DFjY7dBZVsIs4z0gBUAU11rt3b1GFu3fv5vbqGVlpin9UiEz2ZaQAqIIa69Onj6jCnTt3cnt13zgLkYTFlrWZJwCqoN60tbVFFYyNjXN79cfBu0QVDroOZZ4AqIJ669evn6jCrVu5PqvdMfcxogp3AzcwTwBUQb3p6OiIKty4cSO3VzewbiKq4BHzkHkCoArqbcCAAaIK169fz9V1X6eGKv6pOSn9NfMEQBXU28CBA0UVrl69mqvrOkfdEElYZ/cDwwRAFdTeoEGDRBUuX76cq+ve8F8uqnDmxTSGCYAqqL0hQ4aIKly6dClX193trC2qYBZ6hGECoApqb+jQoaIKFy5cyNV1FU+V+jLegWECoApq7/fffxdVOH8+F+eriE4OVPxTc2ZWOsMEQBXU3vDhw0UVjIyMlL+iS9RNkYQN9h2YJACqIAcjR44UVTh79qzyV7wdsE5U4ZTnn0wSAFWQg9GjR4sqnD59WvkrHnEbJarwKGgnkwRAFeTgjz/+EFU4deqU8ldcadNcVMEz1oRJAqAKcjB27FhRhRMnTih5raT014p/ak5Ii2KSAKiCHIwbN05UwdDQUMlrecc+E0kwsG7MGAFQBZmYMGGCqMKxY8eUvNbT4P0KJ9AexhgBUAWZmDhxoqjC0aNHlbzWOa+Zogo3/VcwRgBUQSYmT54sqnD48GElr7XNsZuogv2rS4wRAFWQiT///FNU4dChQ0pea55ZZVGFsEQPxgiAKsjE1KlTRRUOHDigzFUikrxFEuaYlmeGAKiCfEybNk1UYf/+/cpcxSnyuqjCZoefmSEAqiAf06dPF1XYu3evMle5HbCWj1UAQBXk6e+//xZV2LNnjzJXUTzXhUnwbmYIgCrIx8yZM0UVdu3apcxVVtm0/PdcFzGPmSEAqiAfs2bNElXYsWPHRy+fmpGoeK6L+NQIZgiAKsiHrq6uqML27ds/evmAeFuRhCWW9RggAKogK3PmzBFV2Lp160cvbxFmKKqw10WHAQKgCrIyb948UYUtW7Z89PJXfBeKKkj/mwECoAqysmDBAlGFTZs2ffTy0vpAVEFaNzBAAFRBVvT09EQVNm7c+NHLL7GsJ6oQEG/LAAFQBVnR19cXVVi/fn3OF36T9krxBUipGYkMEABVkJVFixaJKqxbty7nC7+IfSKSsMqmBdMDQBXkZsmSJaIKa9asyfnCT4L3iSocdhvB9ABQBblZunSpqMLq1atzvrDih+3c8l/J9ABQBblZvny5qMLKlR850G9z7P7vh+1EXGR6AKiC3BgYGIgqrFjxkc/aXGBeVVQhNNGN6QGgCnIjrQ9EFaR1Qw6XjEoOUHwBEqMDQBVkaNWqVaIKy5Yty+GSrtG3RRI22HVgdACoggytWbNGVGHJkiU5XPLBy62iCic8JjA6AFRBhtauXSuqsHjx4hwuedJzkqjCvcDNjA4AVZCh9evXiyro6+vncMkNdh1FFZ5HGzM6AFRBhjZs2CCqsHBhTudAnf3sa1GFqGR/RgeAKsjQpk2bRBUWLFjwoYuFJbqLJCwwr8LcAFAFedqyZYuowrx58z50MYdXl0UVtjl2Y24AqII8bd26VVRh7ty5H7qYccBqUYWzL/5mbgCogjxt375dVEFXV/dDFzviNkpUwSR4D3MDQBXkaceOHaIKs2fP/tDF1ti2ElXwjHnM3ABQBXnatWuXqMLMmTPfe5m0zCTFc13EpYYxNwBUQZ52794tqjBjxoz3XiYw3l4kYbFlHYYGgCrI1t69e0UVpk+f/t7L2EQYiSrsdtZmaACogmzt27dPVOGvv/5672Vu+a8SVbjoM4+hAaAKsnXgwAFRhalTp773Msfcx4gqmIUeYWgAqIJsHTx4UFRhypQp772M4hmQfF6bMTQAVEG2Dh8+LKowefLk915mrmlFUYXE9BiGBoAqyNaRI0dEFSZNmvTuBaJTAkUSllk1ZGIAqIKcHTt2TFRhwoT3fJaOR8xDUYW9LgOYGACqIGfHjx8XVRg/fvy7F3gasl9U4YrPQiYGgCrI2YkTJ0QVxo4d++4FLnrPFVWwDDvBxABQBTk7deqUqMKYMWPevcBeFx1RBf94ayYGgCrI2enTp0UVRo8e/e4FDKwbiyokZ8QzMQBUQc7Onj0rqjBq1Ki3vpuakSiSYGDdhHEBoAoyZ2RkJKowYsSIt74b9MZJVGH/88GMCwBVkLnz58+LKvz+++9vfdc+4qKownW/pYwLAFWQuQsXLogqDBs27K3v3g5YJ6pgHX6acQGgCjJ36dIlUYUhQ4a89V1Dj3GiCoFv7BkXAKogc5cvXxZVGDz47b8cbLDrIKqQkpHAuABQBZm7evWqqMLAgQPf+q7us3LZSVhh3ZRZAaAK8nft2jVRhd9++03xWxFJXmKhcIAXIAGgCprgxo0bogo6OjqK33KOuiGqcM1vMbMCQBXk7+bNm6IK/fv3V/zWvcDNogoWYYbMCgBVkD9jY2NRBW1tbcVvnfSYJKrgF2fFrABQBfm7ffu2qELfvn0Vv7XZ4WdRhaT018wKAFWQv7t374oq9O7dW/Fb88wqZSdhuXUjBgWAKmiEe/fuiSr06tVLfD0yyU/hI9h0GBQAqqARHjx4IKrQo0cP8XXX6DuiCpd9FjAoAFRBIzx69EhU4ddffxVffxi0XVTBLPQogwJAFTTC48ePRRW6desmvn7mxTRRBe/XpgwKAFXQCE+ePBFV6Nq1q/j6FodfRBXepEUyKABUQSM8ffpUVKFLly7i63NNK2QnYYllXaYEgCpoClNTU1GFzp07Z38xLNFDLBR2OfVlSgCogqYwMzMTVfjpp5+yv+jw6pKowgVvXaYEgCpoCgsLC1GFjh07Zn/xpr+BqMKzkANMCQBV0BSWlpaiCh06dMj+4gHXIaIKnjEmTAkAVdAU1tbWogrt2rXL/uJyq0aiCq9TQ5kSAKqgKWxsbEQVfvzxR+krb9IiRRL0Lb5lRACoggaxs7MTVWjbtq30Fc8YE1GF7Y49GBEAqqBB7O3tRRXatGkjfcUkeLeogpHXDEYEgCpoEEdHR1GFVq1aSV85/WKqqIJUCEYEgCpoECcnJ1GF77//XvrKJvtOogru0fcZEQCqoEFcXFxEFVq0aCF9RSRB+i8m5SUjAkAVNIirq6uoQvPmzcMTPUUSFphVYT4AqIJmcXNzE1Vo2rSpc9QNUYUtDl2YDwCqoFk8PDxEFZo0aXL/5RZRhZOek5kPAKqgWTw9PUUVGjVqdNpziqjC/ZebmQ8AqqBZvLy8RBUaNmyo+GE7TpHXmQ8AqqBZvL29RRXq16+vZ15NVCEs0YP5AKAKmsXX1/ff1yD9WEfxZan//JPFfABQBc3i5+f37zlTdWqKJKy1bctwALkKCAigCvjgg0NUofuUqqIKR9xGMRxArrp06TJ58mQnJyeqgLcFBgaKKgwwqCiqcNPfgOEActWtW7fsf/VDhw598uQJVcC/goKCRBVGHSgvqmATcZbhAHLVo0cPLQXS/7127RpVwH8FBweLR8Zft78WVXj5xoHhAHLVu3dvrXf8+OOPhoaGVEHThYaGZj8gvqpUXPEFSOmZKQwHkCttbW2tD2jQoMGOHTsyMjKogoYKCwvLfijU7lCCFyABGkJHR0crR5UqVVqxYkVUVBRV0DgRERHZD4IfRn8uqnDcfSyTAWRs4MCBWkooWbKkrq6uj48PVdAgkZGR2Xd/n+VfiCrce7mJyQAyNmTIEK3cmDBhgp2dHVXQCNIKMfte/8PwK1GF59HGTAaQseHDh2vl3qBBgx4+fEgVZC4mJka6s4sV01L8U3NUcgCTAWRs1KhRWnnVrVu3S5cuUQXZio2N/e9flup/JpKgZ16dsQDyNmbMGK1P07p16yNHjlAFGYqLi/vv5+30LimqsMOpF2MB5G38+PFa+aFOnTpbt25NSfmkF7JTBdUSHx8v3bU//1VKVOGC9xzGAsjbpEmTtPJP+fLlly1bFh4eThXkICEhQbpTf9tYWlTBNOQwYwHkbcqUKVr5rVixYjNnzvT09KQK6i0xMVG6OydfLSOq4PPajLEAcpWRkZGamvrnn39qFZgxY8ZYWVlRBXWVnJxcslQxxRcgJabHMBbIW1ZWVnp6ekpKivSsKD4+PjY2NioqKiIiIjQ0NCgoyN/f38fH58WLF+7u7s+fP3dycrK3t7exsbG0tDQzM3v69Onjx48fPHhw9+5dY2Pj69evX7ly5eLFi+fOnTtz5szJkyePHz9+5MiRgwcP7tu3b/fu3Tt27Ni6deumTZvWr1+/Zs2alStXLl++fPHixQsXLpw/f/6cOXNmzZr1999/T5s2TTpST5w4cdy4cX/88cfIkSN///33IUOGDBw4UEdHR1tbu3fv3r/++mvXrl07d+7cqVOn9u3b//DDD61bt27ZsmWzZs0aN27coEGDunXr1qpVq2bNmtWqVatcuXKFChW+/vrrr7766osvvvjPf/7z2WefaRUiabfv3btHFdSP9A+jSuN/X4C0xrYNM9EcmZmZaWlp0jODhISEuLi4mJiYyMjI8PDw4ODgwMBAPz8/b29vT09PNzc3FxcXR0dHOzs7a2trCwsLU1PTJ0+ePHr06P79+7dv37558+a1a9cuX7584cIFIyOj06dPnzhx4tixY4cPHz5w4MDevXt37dq1ffv2zZs3b9iwYe3atatWrTIwMFi6dOmiRYv09PTmzZunq6s7c+bM6dOnT506dfLkyRMmTBg7duzo0aNHjBgxdOjQQYMGDRgwoF+/fn369OnZs2f37t1/+eWXn3/+uWPHju3atWvbtm2rVq1atGjRtGnTRo0a1a9fv06dOt9++2316tWrVKlSsWLF8uXLly1b9ssvvyxVqlTJkiWLFy+uhcIiNczW1pYqqBPpoNC0778vQDrsNlJj19RJSUlv3rx5/fp1dHS0eNoYEBDg6+vr5eXl4eHh6urq7Ozs4OAgPcqlBbK5ufmzZ89MTEzE08YbN25cvXr10qVL58+fP3v27KlTpwwNDY8ePXro0KH9+/fv2bPnvU8blyxZoq+vv2DBgrlz586ePXvGjBl//fXXlClTcn7a2KNHj27dunXp0uWnn37q0KHDjz/+2KZNm5yfNpYrV65MmTKlS5f+/PPPS5QoUaxYMY5ZKDjSA1J6fsBaQf1I6+ju8/99AdI1n2XZa2rxtDEkJOTly5c5r6nF08Y7d+7cunUrhzW1eNq4ZcuWjRs3rlu3bvXq1StWrFi2bNm7a+p3nzYOGzZs8ODBv/32W//+/fv27durV6/sNXXOTxu/++67GjVqVK1atVKlSt988032mpqnjdBMn3322X/+8x/paUHB3YT0HEV6VsTfFdT4dwiK57po3Lsk/2wge9I6STosSmsmaeUkrZ+kVZS0lpJWVNWrV//2229r165dr169hg0bNmnSpHnz5t9//730tFc60klrMmllJq3PpFWatFbr06dPv379BgwYMGjQoKFDhw4fPnzUqFFjxowZP378pEmTpNWetOaTVn7S+k9aBerp6S1atGjp0qUGBgarVq1au3bthg0bNm/evG3btp07d0rrSGk1Ka0ppZWltL6UnmIbGRlduHDh8uXL165du3nz5u3bt+/du/fw4UNpbSqtUKV1qrRaldas0srVxcXFzc3N09PT29vbz88vMDAwODg4LCzs1atX0qpXWvtKK2BpHSythhVPji0tTwtisO3bt5eeC+b2KEQVVO7PbsMPfDn11v9/DVLlRp9xyNAc0lJJWjBJyyZp8SQtoaSFlLSckhZV0tJKWmBJyyxpsSUtuaSFl7T8khZh0lJMWpB16tSpc+fO0hJNWqhJyzVp0SYt3aQFnLSMkxZz0pJOWthJyztpkSct9aZNmyYt+6TFn7QElBaC0nJQWhRKS0NpgSgtE6XForRklBaO0vJRWkTu27dPWlBKy0ppcSktMaWFpnSIkRad0tJTWoBKy1BpMSotSaWFqbQ8NTU1tbCwsLa2trOzkxav0hJWWshKy1lpUSstbaUFrrTMlRa70pJXWvjGxcUlJCQkJyenpaVJz4T4h79kyZL8fSxJi3UpY3nbGaqgissFqQ2lynz2Te3iJUoV42lj9tPGatWq1axZs1atWnXr1m3QoEHjxo1zeNrYu3dvbW1tHR2dgQMHDhky5Pfffx85cuSHnjYuWLBAeqYm/bNcvnz5ypUr16xZs379+k2bNm3dunXHjh27d++WDo7iaeOpU6ekxfj58+cvXbp09erVGzduGBsb371798GDB48fP3769KmZmZmlpaWNjY29vX32wdHDw8PLy8vX1zcgICAoKCg0NDQiIiIqKio2NjY+Pj4xMTElJSU9PV2603nwayxpyZJf/4KkfwifeFokqqCiSv4P6Wnjl19+WbZs2fLly1esWLFKlSqKa+p3nzZKTxB+/vnnX375pXv37j179sxhTS09bZw6der06dNnzpypq6s7b9485dfUJ06cyNWa2tnZ2dXVNfvgqPyaGtAc0r+4fHl9kbSM+/SdoQoAUMSkJ2Gf0gPpiaD05Cy/doYqAEARk9bleetBt27dpJV6/u4MVQCAIrZ58+bc9qBHjx7GxgXyeVxUAQCK2LZt25TvQa9eve7cuVNwO0MVAKCI7dy5U5ke9OnTR8lzGVEFAFBje/bsybkH2traDx48KJydoQoAUMT279//oR7079//0aNHhbkzVAEAitihQ4fe7cGAAQNMTEwKf2eoAgAUsaNHjyr2YODAgc+ePSuqnaEKAFDEDA0Ns3swZMgQM7Mi/vhFqgAARezUqVPDhg2zsLBQhZ2hCgBQxEJCQlRnZ6gCAIAqAACoAgCAKgAAqAIAgCoAAKgCAIAqAACoAgCAKgAAqAIAgCoAAKgCAIAqAACoAgCAKgAAqAIAgCoAAKgCAKDwGBgYaCntiy++qFGjRsuWLbt06XL8+HGqAAByY/K/9u7dW69ePcUG1K1bt0ePHlOmTNHT0xs8eLAUA6kKiheQvnvjxg2qAACyLYQ44jds2PDdC/j7+48fP14xDJUqVQoLC6MKACBD+/btE4f7/v3753BJxTBMmjSJKgCADM2YMUMc6+fOnZvDJQ8ePKgYhufPn1MFAJCb7t27iwO9dNzP+cLffPONuPCBAweoAgDITbVq1cSB3sTEJOcLt2/fXlx4zJgxVAEAZCUmJkYc5b/66quIiIicLy+VQFxeR0eHKgCArJiZmYmjfJs2bT56+YULF4rLT5kyhSoAgKwcPnxYHOVHjBjx0csPGzZMXN7AwIAqAICszJkzRxzlly9f/tHLt23bltcgAYBs9enTRxzlz5w589HLly9fPvvC7du3f+tbVAEA1N533333oef+79qyZUsOr2GlCgCg3t68eSOO8lWrVs35wn5+fuI1rG3btn33AlQBANSbjY2NqEKXLl1yvvDff/+d89saqAIAqDdDQ0NxoJ88efKHLpaWlvbnn39+9J1uVAEA1Juenp441m/btk36yv79+93d3RUvY2FhIU6J0axZMzc3tw9tjSoAgHrT0dERVXj06NE//3tCC+noP3PmzH79+lWuXFlcYPjw4b6+vjlsjSoAgHpT/LydyMhI6SuhoaEGBgbVq1dXPDfqoEGDTpw48dGtUQUAUGMpKSniuF+/fn3FbyUnJ3t4eFhYWAQFBSm/QaoAAGrM0dFRVEFbW/vTN0gVAECNnTlzRlRBX1+fKgCARlu6dKmogpGREVUAAI02ePBgUYUcXm9KFQBAIzRu3Dg7CaVLl86XDVIFAFBXWVlZYqHw3pMaUQUA0CCurq6iChMnTqQKAKDRjh8/Lqqwc+dOqgAAGm38+PEfPdsdVQAATVG7dm1RhVevXlEFANBclpaWiqc5srOzowoAoFmSk5OvXLmyd+/eMWPGlClTRrEKPXv21NXV3b1799mzZ+/cuUMVAED+PDw8shvw5ZdfVq9evUmTJh3+h/Q/pP8rfTH7u127dqUKAIB8QBUAAFQBAEAVAAA5+39ynofXu5MvtAAAAABJRU5ErkJggg==;" vertex="1" parent="1">
          <mxGeometry x="242.01" y="425" width="137.98" height="130" as="geometry" />
        </mxCell>
        <mxCell id="I1JThzbMCgrEHhUARHG0-15" value="" style="shape=image;aspect=fixed;image=data:image/png,iVBORw0KGgoAAAANSUhEUgAAAgcAAAHwCAIAAAC9vFtQAAAACXBIWXMAABJ0AAASdAHeZh94AAAgAElEQVR42u3dCXhMd/vwcarVqmopqlVU7aqUoiml1Fb7Xh5qX0ptpdailKrY9yL2LWqNvY2lQiSESAiy7/u+72vf877zPvczRWKyZ+Z8P1ev//X85czk5J7J+c4vM3Om1D8AAPxXKUYAAKAKAACqAACgCgAAqgAAoAoAAKoAACiiKiQlJTEmAFBdFTp27Pj55593fEb37t11va5SpWrUqGFkZKR9ceU6GzduXL169fLlyysbFNfPaWFhUUpn5cqVa9as2cCBA2fNmnXmzBnuJQDUWIWl/zVhwgTlsCiHSGNjYx2vS3PxKVOmVK1aVfsg26BBg2HDhmm+WgQ/kre393OrkN3uadSqVUtp2Pvvv//sl9q3b79nz56nrvD+/fvcewAYchW0KY+U5Zh4586d3F6ptbW19lHV1ta2yH6e7777rmfPngkJCbrvnhKMoKAg+Wp4eLiVlVX//v2fasOFCxdkm/3799epU0e5IHcgAKqrQkpKSm6vVPvPNY0bNy6yH6ZLly7Kd1T+b0xMTM6LCdm9ChUqaCdBm729vXYV6tWrJ1uamJhIUbgPATD8KlSrVk2Ohnm40p07d8rFR48eXTQ/Sffu3ZVvpzyEf/ToUc5bXrp0SXavVatWOWyprA+0wzB37lz50oIFCzT/6OXlxd0IgIFXQY6DjRo1ysOVzpo1S65h9erVRfBjrFu3TvPtLl68+MKN165dK7s3fPjwnDfu2rWrbNyzZ0/tLymXVf7xtdde424EwJCr8OTJEzkOTp48OQ9Xqhw9n/vn+EJiZmam+V4//fSTLtuPHTtWdm/ZsmU5bzxt2jTZuHbt2tpfcnd3f/fdd3VJCwDocRWOHz8ux8E//vgjD1dat25duQZPT89C/QFu3bql+UYtWrSIj4/X5SJGRka6/4DyFIKibNmyT311y5YtuX2lFgDoWRWWLFkix8EX/o3+WcnJydov/C/UvQ8KCmrYsKHme504cULHS1WoUEH28MGDBzlv/Ndff2W3VtDo0aOH5qumpqbcnwAYYBUGDRokx8GsrKzcXqMSErl4y5YtC3Xvly5dqvlGY8eO1fEifn5+snvvv//+C3/AHTt2yPZt2rR5dgNLS0vNV5s1a8b7wAEYYBUaNWqkOczl7XnU06dPy2F05MiRhbpQqF69uuYbXblyRcdLmZuby+516tTphdvPnz//hW/o69u3b1E+tQ4ARVeF9PR0OQjqfq4LbStXrszD+6Lzs1Bo0aKF7pfasGFDrp5L/+abb2R7Ozu7526zd+9eWXyEhoZyrwJgOFV4+PCh7q/Pea7Ro0fLNZw7d66Q9jslJaVBgwaa75KrE2lMmDBBdm/jxo05b+zm5ianx+jTp092m4WHh8tzFS+8TgDQpyqYmprKQfPUqVN5uMbPP/9crsHd3b2Q9nvfvn3yXaytrXW/YNu2beWCV69ezXnjSZMm6fgS206dOmk2a926NfcqAIZThYULF8px0MXFJQ/XWKlSpexex1mANCe3UDRp0iRXF6xYsaLmgmXKlAkLC8thy8uXL8soJk6cmPPVas/t9OnT3LEAGEgV+vXrl59zXfj4+MjFmzdvXkg7rf0yp1z9+SgwMFDHEzTZ2NjUq1dPs2XHjh1feM3ap34aN24cdywABlIFORTm7VwXV69e1f1kEnm2fft2+S6HDh3K2+71799f+Zfz588/eyq9c+fOvf322zquEjTi4uK0zxzOHQuAIVQhJSVFDm3ffvttPo/XK1asKKSd1pyASMPKykr3C27evFkuuGDBgn/+3wuZqlWr1q1bN2NjYzMzsylTprRu3VqzQfXq1XO1EJFnvxVubm7ctwDofRXs7OzkuLZy5co8XJ32efGUg2wh7XStWrXku2R3Huzn0n72WHOuCwcHhzlz5mifI1bRrl279evX5+qaFcOGDZNr2LdvH/ctAHpfhUOHDslx7fz583m4ut69e+fzyeoX0l7QvPzyy7m6rHK4l8s6OTlpfykgIMDCwsLDwyMPnyeh8euvv8qV63iePgAo0VXQfh9v3s5qJ39FKVOmTCHtcVhYmOxk5cqVc3VZebagUqVKBb5jcqY8xdSpU7lvAdD7KvTq1Ss/57qIjo6Ww2LTpk11vFRycrKjo6PuCwvl4bx8lzp16ui+e8HBwXLBzz//vMBHefDgQbn+UaNGcd8CoPdVqF27dn7einXv3j05LA4dOjTnjdPS0mbOnNmkSRPtD8v84osvNm/eHBUVlcMFtZ/8yNW5Lv7++2+54IQJEwp8lGfPnpXrHzBgAPctAPpdhYSEBDmojRkzJg/Xpf2+6JzPlmFpadm8efNS2ahZs2YOJ7jWfmeALu8kEFu3bpULKv+7wEepvWOdO3fmvgVAv6ug/Uh/zZo1ebiuX375RcezZbRq1Urzx31lSbFnz55z584pSwR5SWjOJx3y9fWVzT799FPdd+/777+XCypZKvBRnj9/PrvP8gQA/avC/v375aB26dKl3F6RfHLyc1/h85QqVaqULVv22VOQymlQc35h68svv6zZpn79+rrvYYcOHeTKY2NjC3yUR44c0f0PaABQ0quwceNGOaiZmJjk6lp27dqlXEpOOl26dOkcNs7IyFC2US7y3K8qq4QXnspCXulUrVo13XdSzn764YcfFsYotT+fR8d3RANAya2C9l+Qxo8fr/tVaD7nWUnCe++9p8sZ63x9fevWrZvdV9evX6+5EuUKs9ume/fumm1ef/11HXdS++9OmnNdFLg1a9bIt/jxxx+5bwHQ7yqkp6fL+UTfeOMNGxubF17Y09NTeVAsR3A5JuZwQFfcvn07h3WAfJRbDlcyZcoU+V7x8fG6/Jzaz4Tn6jwWupszZ05hfwsAKLoq/KP1SZOKtm3b+vn5ZXexhISELVu2aD4gU3P4vnXrVoEcE8+cOaN9nqLn0n4OQ/m+ulyt9lPNR44cKYxRysm9FRYWFty3AOh9FRwdHbWfMa5UqdKMGTOsrKzi4uI0Gyj/Q/l/586dq3lnw6uvvirHbmNjY7mgubl5nndo9erVLzzcm5mZ5fY1pk2bNpWL7N+/vzBGWaVKFfkWMjEA0OMqKPbs2fPc9xA0/H+0/2XEiBHaLyKS90VrnldQlgsW/5WrHWrZsuUL3wUWExOjy/vRNN9dWXxov7RJoSRNe/cK5HG9v79/3t5FAQAlugoKW1tb7bccP6VixYrjx49/9qWrb7311nO3V1Ybuu+NiYmJ5vMJvLy8ct5y0KBBmutXKpLdNsrRuZQOcvhDme6036wwe/Zs7lgADKcKGsqj6VGjRrVr16569erly5dv3br1mDFjtm3blt35pZVH3NbW1m5ubtHR0ampqcqhVqlLrh6J29jYaM5el/MnJD97FE5KSsphrXDr1q1Hjx75+vpqPl1H2T1vb+8HDx7IQkHZ2/zPcdGiRbl9qgMA9KkKRSwyMtLIyEg5pK5atUrHi8gLYW/evFns+y9PNffq1Yt7FQCqkF/ffvut5rkK3S8irwRdv3598e58cHDwm2++qdkZU1NT7lUAqEK+aJ4N7t+/f3p6uu6XUpYImgNxmzZtinf/5XVTOTzJAQBUQSea0wf17NkzISEht5f97LPPNIfjEydOFNf+p6WlyZPzuT1TCABQhX+5du1a+fLlu3TpEhERkYeLyxuhe/fuXVw/guZ1UwW4UMj54yUAwGCr4ODgULt27fbt2wcGBub5SuRNy4X03rQX0rzBQnH48OECucLRo0dzvwSguioEBQW1bt3ayMgobx8QrX099evX17x1rjDOj63jQmHhwoUFcoWas886Ojpy1wSgoiqkp6f37NmzRYsWOX8Mg44OHTqkOTT//PPPxbJQGDhwYEFd4ccff8yJuAGorgpjxowppRsdr1B5qK5sXK5cOXt7+yJeKDRu3NjHx6dArvDo0aPyg7u5uXHvBKCKKsydO7eUznS/2h9++KEon3a+ffu25p3Y+TkV4FPatGkjP/iUKVO4dwJQRRU65kaurlnzYQ9F8NkG/v7+mndiF+ArYrXP4aFRUEsQACjRVShUI0aMKIK3L2g+i7Rgv0vXrl2fqsLMmTO5gwKgCvlVNO9oK9jvYmFh8dw/oOXnNbsAQBX01cCBA59bhXnz5jEcAFRBXWxtbbN7sr1s2bLh4eGMCABVUJFRo0bl8CqsRYsWMSIAVEEtXFxccn5tbvny5Yv+PdsAqAKKx9SpU1/4po1ly5YxKABUwfAFBATo8la+SpUqZfcppABAFQzH/PnzdXyPt7GxMeMCQBUMWUxMzOuvv65jFapVq5aRkcHQAFAFg/Xrr7+Wyo1169YxNABUwTBlZma+8847uapCjRo1mBsAqmCYNm3aVCr3tmzZwugAUAUDVLdu3TxUoU6dOowOAFUwNHv27CmVVzt27GCAAKiCQfnkk0/yXIVGjRoxQABUwXAcP368VP7s3buXMQKgCgaiXbt2+axC06ZNGSMAqmAILl26VKogHD58mGECoAp6r3v37gVShZYtWzJMAFRBv1laWpYqOMeOHWOkAKiCHhs8eHABVqFNmzaMFABV0Ff29valCpqZmRmDBUAV9NLYsWMLvApffvklgwVAFfSPm5tbqcJx8eJFxguAKuiZ6dOnF1IVunTpwngBUAV9EhwcXKowXb58mSEDoAp6Y+HChYVahR49ejBkAFRBP8THx1eoUKFUIbOwsGDUAKiCHli5cmXnzp27du3arVu37t27K4/re/Xq1bt37759+/br12/AgAEDBw4cPHjwkCFDhg4d2qpVK+1zo44ZM2bcuHHjx4+fOHHid999N3ny5O+//37q1KnTpk2bMWPGDz/8MGvWrB9//HHOnDlz585l1ACogqHZvn27VEEJAAMBQBVUbceOHVIFZWXAQABQBVUzMTGRKnz33XcMBABVULVdu3ZJFSZOnMhAAFAFVdP+POfx48czEABUQdX27t0rVRg3bhwDAUAVVG3//v1ShTFjxjAQAFRB1Q4cOCBVGD16NAMBQBVU7dChQ1KFkSNHMhAAVEHVDh8+LFUYMWIEAwFAFVTN1NRUqjB8+HAGAoAqqNoff/whVRg2bBgDAUAVVO3YsWNShaFDhzIQAFRB1U6cOCFVGDJkCAMBQBVU7eTJk1KFwYMHMxAAVEHVTp8+LVUYOHAgAwFAFVTNzMxMqjBgwAAGAoAqqNrZs2elCv369WMgAKiCqp07d06q0LdvXwYCgCqo2oULF6QKvXv3ZiAAqIKqXbx4UarQq1cvBgKAKqjan3/+KVXo0aMHAwFAFVTtr7/+kip0796dgQCgCqp2+fJlqUK3bt0YCACqoGpXrlyRKnTt2pWBAKAKqnbt2jWpQufOnRkIAKqgatevX5cqdOrUiYEAoAqqZmFhIVXo2LEjAwFAFVTt5s2bUoUOHTowEABUQdUsLS2lCu3bt2cgAKiCqllZWUkV2rVrx0AAUAVVs7a2liq0bduWgQCgCqp2584dqUKbNm0YCACqoGo2NjZSBSMjIwYCgCqo2r1796QKrVu3ZiAAqIKq2draShVatWrFQABQBVWzs7OTKnz66acMBABVUDV7e3upQosWLRgIAKqgag8fPpQqfPLJJwwEAFVQNQcHB6lCs2bNGAgAqqBqjx8/lip8/PHHDAQAVVA1R0dHqUKTJk0YCACqoGpOTk5ShcaNGzMQAFRB1VxcXKQKjRo1YiAAqIKqubq6ShUaNGjAQABQBVVzd3eXKtSvX5+BAKAKqubh4SFVqFu3LgMBQBVUzcvLS6pQp04dBgKAKqiat7e3VKF27doMBABVUDVfX1+pwgcffMBAAFAFVfPz85Mq1KxZk4EAoAqqFhAQIFWoUaMGAwFAFVQtMDBQqlC9enUGAoAqqFpwcLBU4d1332UgAKiCqoWEhEgVqlWrxkAAUAVVCwsLkypUrVqVgQCgCqoWHh4uVahSpQoDAUAVVC0yMlKq8PbbbzMQAFRB1aKioqQKlSpVYiAAqIKqxcTESBXeeustBgKAKqhabGysVOHNN99kIACogqrFx8dLFd544w0GAoAqqFpiYqJUoXz58gwEAFVQtaSkJKlCuXLlGAgAqqBqKSkpUoXXXnuNgQCgCqqWmpoqVShbtiwDAUAVVC09PV2q8MorrzAQAFRB1TIyMqQKZcqUYSAAqIKqZWVlSRVeeuklBgKAKqj+9tDCNABQBbUrXbq0VCEzM5OBAKAKqlamTBmpQkZGBgMBQBVU7ZVXXpEqpKWlMRAAVEHVypYtK1VITU1lIACogqq99tprUoXk5GQGAoAqqFq5cuWkCklJSQwEAFVQtfLly0sVEhISGAgAqqBqb7zxhlQhPj6egQCgCqr25ptvShViY2MZCACqoGpvvfWWVCE6OpqBAKAKqlapUiWpQlRUFAMBQBVU7e2335YqREREMBAAVEHVqlSpIlUIDw9nIACogqpVrVpVqhAaGspAAFAFVatWrZpUISQkhIEAoAqq9u6770oVgoKCGAgAqqBq1atXlyoEBgYyEABUQdVq1KghVfD392cgAKiCqtWsWVOq4Ofnx0AAUAVV++CDD6QKPj4+DAQAVVC12rVrSxW8vb0ZCACqoGp16tSRKnh6ejIQAFRB1erWrStV8PDwYCAAqIKq1a9fX6rg5ubGQABQBVVr0KCBVMHV1ZWBAKAKqtaoUSOpgrOzMwMBQBVUrXHjxlIFR0dHBgKAKqhakyZNpApPnjxhIACogqp9/PHHUoVHjx4xEABUQdWaNWsmVXBwcGAgAKiCqn3yySdShQcPHjAQAFRB1Vq0aCFVsLe3ZyAAqIKqffrpp1KF+/fvMxAAVEHVWrVqJVWwtbVlIACogqp99tlnUoW7d+8yEABUQdWMjIykCjY2NgwEAFVQtTZt2kgVbt++zUAAUAVVa9u2rVTB2tqagQCgCqrWrl07qcKtW7cYCACqoGrt27eXKlhaWjIQAFRB1Tp06CBVuHHjBgMBQBVUrWPHjlIFCwsLBgKAKqhap06dpAp///03AwFAFVStc+fOUoWrV68yEABUQdW6du0qVbhy5QoDAUAVVK1bt25SBXNzcwYCgCqoWvfu3aUKf/31FwMBQBVUrUePHlKFS5cuMRAAVEHVevXqJVW4ePEiAwEKSWJGemhqomditFtCFNOgCiVXnz59pArnz59nIEBuZf3zT1x6amBKvFtitH1s6M2ogEthXseDXPYFPNnsY/+bh81PrremO12f6vi35j/TQGeGRhVKrr59+0oVzp07x0CAp8RnpAWlJLgmRt2PCbke4Xc+1ONokMsu/0cbvO8vd78zz9VSDvc6/rfJh4/CpQolWP/+/aUKZ86cYSBQlcysrOi0FP/kOMf4iLsxwVcjfM1C3A4GOG7zeWDseW+h661puTzi6/LfIlcrJk8VSq4BAwZIFczMzBgIDElCRlpIaqL7//vDjqXmDzvBrnv8HyuP1n/1uDPPxXJqIRz0s/vvR+cbS9xvr/G8x1qBKpRogwYNkiqcOnWKgUBfZP3zT1RasldijENcmHV0oHm498lg1/0BT7b42K/0vPvUn/IL+z8lMMs97qz3um/i9+hokPP5UM+/I/zuxQQ7xUf6JcdFpiWnZWZyk1EF/TB48GCpwsmTJxkISpSMrKyI1CTlwb5tTMjVcJ9TIW67/R+v9bJd5GZVZEf82c43fnG/vd77/m7/R8eCXS6Get6M9LeLDXVNiApKSYhNT83MyuKWogqGY8iQIVKF48ePMxAUvdSsjJCUROUgezcm+HK49/FgV+UR92qvewtcbxXBQX+O883l7nc2etvt8X98Itj1r3BvZeXxKD5cWYUoQUrNzOAGogrqMnToUKnCsWPHGAgKSUJGmn9y3JP4CKvowAuhnkcCnbb5PlzhYTPH5WbhHfFnOln87Ga92vPe774PDwY4moW4Xwn3uRMd9Dgu3Dc5Lio9JZ0/7FAFPGXYsGFShaNHjzIQ5F9seqpHYrRy8D0X6qE8AP/N465ydC6Uh/kuN5WubPV5cCDA8VSw2+VwH+uowEdx//dhfnhqUgoP86kC8mD48OFSBVNTUwaCXEnMSPdJir0bE3wxzHN/wJPVXrYF/th/novlSs+7O/wc/ghy+TPMS4mNc3xkcEpCMgd9qoDCMGLECKnC4cOHGQiyk5qZ4Z8cbxcTYh7ufSjQab33/fkF98rOBa63VnveM/F7dDzY9XK4993oYNeEqNDURF66QxVQ1EaOHClVOHjwIAOBUA7KtrEhZiHum3zsFxbEE7+L3KzWed/f7ffoZLDbtQjf+7EhHokxkWnJGVkc+qkCSozRo0dLFQ4cOMBAyIAmA7Od8/WHoF/cb//u+/BEsOuNSH/H+Iiw1CTGC6qgH8aMGSNV2LdvHwMhA7n9bykBAFUwJOPGjZMq7N27l4GQgZz++u9iudHbzjTQ+UqEz8O4sODUxMx/eAMXqIJhmTBhglRh9+7dDMTwuCdGXwrzylsGjD3vHQ1ytooO9EmKTcpIZ5igCoZv4sSJUoVdu3YxEMPgmRhtHu69xcf+h1y+UWCl590jgc43I/2VDLAKAFVQo0mTJkkVdu7cyUD0l3dS7OVwnx2+D+fkZk2wwsPmYIDjjUh/r6SYdF4LBKqAyZMnSxV27NjBQPSLb1Ls9Ui/Pf6PF+p8trjlHjYHAp4ol3JPjObdAKAKeNqUKVOkCr///jsDKfkCUxJuRQUcCnRa6n5blwzMcLLY5GN/KczLLSGKk0CAKuAFpk6dKlXYtm0bAymxPBKjL4R6rvGy1aUEs5xvbP5vCRgdqAJyYfr06VKFLVu2MJCSxjUh6myox0rPuy8swVyXm7/7PqAEoArIlxkzZkgVNm/ezEBKgqysrCfxESeDXZe733nh6YN2+jlcDvehBKAKKBgzZ86UKmzcuJGBFKO0rEyHuPBjQS45P2Ewz8Vyj9+jaxG+HonRDA1UAQVs1qxZUoUNGzYwkKKXlJFuFxNyJNBpoatVzsuCQwGOtjEhibybDFQBhWf27NlShXXr1jGQovQgNvRAgGPO56P+yfXW4UAnu9jQ5ExiAKqAwjdnzhypwtq1axlIEYhNT/07wnd1jq8mWuxmfTTIWckGryUFVUCRmjdvnlRh9erVDKRQeSfFngx2nZ/9ZxUscbP+I8jFIS6ctxmDKqB4zJ8/X6pgbGzMQAqJXWyoiZ9DDiejPh7s+jguPDOLkw+BKqBY/fTTT1KFlStXMpCCFZ2WfDXC1zibdxtMd7x+IMBRiQEpAFVASbFo0SKpwooVKxhIQfFMjFYe/s/N5qPtl3vYXAz1DElJYFAAVShZFi9eLFX49ddfGUj+2cYE78j+j0XKl+7FBPNhNQBVKKGWLFkiVVi2bBkDyQ/rqMDsXlm0wPXWyWA3r6QYpgRQhRJt6dKlUoVffvmFgeTNneigtdn0YJ3XfYtIv7j0VKYEUAU9oKwPpArKuoGB5Na9mOD13vdzeCaZEQFUQZ8sX75cqvDzzz8zEN3ZxoRs8rF77ruReSYZoAr6asWKFVKFRYsWMRBd2MeGbvF58GwP5jjfPBfqEZWWzIgAqqCvfvvtN6nCwoULGUjOHsaFbXteD2Y6W5wOcQ9LTWJEAFXQb8bGxlKFBQsWMJDsPIoL3+778LnPJx8LcglMiWdEAFUwBKtWrZIqzJ8/n4E8KyIt+XCg03N7cCTI2Tc5jhEBVMFwrFmzRqowd+5cBvKUO9FBS9ysn+3B/oAnfOgNQBUM0Nq1a6UKc+bMYSAvXCLs9n/swsdhAlTBUK1fv16q8OOPPzKQHJYIG73tHsdHMByAKhiyDRs2SBVmzZrFQLJbIlwM8+LURQBVMHybNm2SKvzwww8sEZ5dImzwtnNJiOSuAlAFVdi8ebNUYcaMGSwRnvrvfKgH5zcFqIKKbN26Vaowbdo0lgjy31ovWyeWCABVUJtt27ZJFaZMmcISQfPf2VCPND45GaAKKrR9+3apwvfff6+qn902JuTZJcIaL9snvNAIoAqqtXPnTqnCpEmT1POD/x3h9+wSwSzELTUzg3sFQBXUy8TERKrw3XffqeSnPhPi/lQPjD3vPuKzEACqgN27d0sVJkyYYPA/b3pW5qEAx6eScCrELSkjnTsDQBXwz549e6QK48ePN+wfNjIteaP305+TYxkVwN0AoAr4//bt2ydVGDt2rAH/pN5JsT8639DuwUI3K0eeWAaoArTt379fqjBmzBhD/TEd4sKeWiJs8rYLSUnkDgBQBfzLwYMHpQqjRo0yyJ/xZlTA05+LEOjE2xEAqoDnOHTokFRh5MiRhvcDHnnmTWp/hnlzuwNUAdkcNI8ckSp8++23BvbTrfa891QS7sYEc6MDVAHZMjU1lSoMHz7cYH6u+Iy06U7Xn0oCn54GUAW8wB9//CFV+M9//mMYP5RbYvRTPZjjcjMqLYWbG6AKeIFjx45JFYYOHWoAP5FnYsxTSVjteY8bGqAK0MmJEyekCt98842+/zg+SbFPJWF/wBNuZYAqQFcnT56UKgwePFivfxb/5LinknApzIubGKAKyIXTp09LFQYOHKi/P0hwSsJTSTgZ7MrtC1AF5I6ZmZlUYcCAAXr6U4SlJs349yuODgU4cuMCVAG5dvbsWalCv3799PFHiExLnuN8UzsJJn4O3LIAVUBenDt3TqrQp08fvdv/6PSURW5W2knY5vuQmxWgCsijCxcuSBV69+6tXzsfl576i/tt7SRs8bHnNgWoAvLu4sWLUoWePXvq0Z4nZqQZ//uEFptIAkAVkE9//vmnVKFHjx76stspmRnrve5rJ2GD931uTYAqIL/Mzc2lCl9//bVe7HNGVtZW3wfaSVhHEgCqgAJx+fJlqUK3bt30Yp9N/By0k7DGy5YPSwCoAgrG1atXpQpdunQp+Tt8NNBZOwmrPO/FpqdyOwJUAQXj2rVrUoXOnTuX8L29HuGnnYSVHndD+ZRNgCqgII+z169LFWfgQqsAABotSURBVL766quSvKvO8ZHTtJKwwsMmOCWBWxCgCihIFhYWUoWOHTuW2P2MTktRMiBJ+MHJwjUhipsPoAooYDdv3pQqfPnllyV2P/f6P9b+29HNSH9uO4AqoOBZWlpKFdq3b18yd/JSmJd2Ek5wMlSAKqCQWFlZSRW++OKLEriH9rGh2knY6vMgi5sNoAooJNbW1lKFtm3blrTdC0pJWOT6v5PfLXaz4hlmgCqgEN25c0eq8Pnnn5eofVPWBNt8/vUe5odxYdxkAFVAIbKxsZEqGBkZlah9OxXspp0E83Afbi+AKqBw3bt3T6rQunXrkrNjVlGB2kk4GMhnqwFUAYXP1tZWqtCqVasSsleeiTE/Ot/QPtNRQkYaNxZAFVDo7OzspAqffvppSdilxIx0JQOShNkuN5VIcEsBVAFFwd7eXqrQvHnzkrBLhwOdtP92dDs6kJsJoAooIg8fPpQqfPLJJ8W+Pxb/Pv+dWYg7txFAFVB0HBwcpApNmzYt3p0JTUlc4HJLkrDDz4EbCKAKKFKPHz+WKnz88cfFuzOHAhy13rBmHZaaxA0EUAUUqSdPnkgVPvroo2Lck/sxIdp/O7KMCuDWAagCipqTk5NUoXHjxsW1G0kZ6b9pnSh7J387AqgCioWzs7NUoWHDhsW1G2dC3CUJM5yueyXxUlSAKqA4uLq6ShUaNGhQPPuQEKX9t6OLYV7cLgBVQPFwd3eXKtSrV69Y9mGLj73225jTsjK5XQCqgOLh4eEhVahbt27R78C1CF/OigpQBZQUXl5eUoUPP/ywiL97YEr8XJebkgTTQGduEYAqoDh5e3tLFWrXrl3E331/wBNJwiJXq4i0ZG4RgCqgOPn6+koVatWqVZTf2iY6WPtvRzcj/bk5AKqAYubn5ydVqFmzZpF937j01OXud/53cgvfh9wWAFVA8QsICJAqvP/++0X2fU9qfc7aNKfrnCsboAooEQIDA6UK1atXL5pv6hgfof23owuhntwQAFVAiRAcHCxVePfdd4vmm27wtpMkGHveTc3M4IYAqAJKhJCQEKlCtWrViuA73vr3BzLb8wYFgCqg5AgLC5MqVK1atbC/XeY/WcriQJJwONCJmwCgCihBwsPDpQqVK1cu7G93M9Jfe6HgmxzHTQBQBZQgkZGRUoW33367UL9Xelbmbx7/WygcDeKdzACoQgkTFRUlVahYsWKhfi8LFgoAqEIJFxMTI1V46623Cu8bpWZmrND6XB0WCgCoQkkUGxsrVahQoULhfaPrkX4sFABQhZIuPj5eqvDGG28U0ndJycxYpnV+CxYKAKhCCZWQkCBVeP311wvpu1wN92GhAIAq6IGkpCSpQrly5QrjWyRmpC11v81CAQBV0APJyclShVdffbUwvsVlFgoAqIK+SE1NlSqULVu2wK8/PiNtCQsFAFRBX6Snp0sVXn755QK/fvNwbxYKAKiC3sjIyJAqlClTpmCvPC49dZGrFQsFAFRBb2RlZUkVSpcuXbBXfinMi4UCAKqgbzeJlgK82pTMjJ/drFkoAKAKeuall16SKmRmZhbU1VpFBbBQAEAV9E+ZMmWkChkZBfaxaJu97SUJBwIcmTMAqqAfXnnlFalCWlpagVynS0KU9kLBKSGSOQOgCvqhbNmyUoXU1NQCuU7TIGdJwhafBwwZAFXQG6+99ppUITk5Of9XGJmW/KPzDanCnegghgyAKuiN119/XaqQlJSU/yu8EvG/U1z86nEnIyuLIQOgCnqjfPnyUoWEhIT8X+FKrY/hNA/3ZsIAqII+qVChglQhPj4+n9dmFxsqSZjjcjMqLZkJA6AK+uTNN9+UKsTGxubz2nb5PZIqnAh2ZbwAqIKeqVixolQhJiYmP1flmxyn/YJU76RYxguAKuiZSpUqSRWioqLyc1VmIe6SBGXRwGwBUAX9U7lyZalCREREnq8nMSNtkdaJjx7GhjFbAFRB/1SpUkWqEB4enufrsYz834mP1nndZ7AAqIJeeuedd6QKoaGheb6ejd52UgXLqAAGC4Aq6KVq1apJFUJCQvJ2JU4JkZKEJe63kzMzGCwAqqCX3nvvPalCUFAez05xONBJqnAhzJOpAqAK+qp69epShcDAwDxcQ1x66hyXm5okzHC6HpKSwFQBUAV9VaNGDamCv79/Hq7BOjpQFgoH+SgFAFRBr9WsWVOq4Ofnl4dr2OnnIFWwjQlhpACogh774IMPpAo+Pj65vXhoauK0/yZhgeut5Mx0RgqAKuixDz/8UKrg7e2d24tfi/CVhcKRQGfmCYAq6Lc6depIFTw9c/3yoU1ab1N4EBvKPAFQBf1Wr149qYKHh0euLuuTFCtJWOxmlZaVyTwBUAX9Vr9+famCm5tbri57IdRTqnAsyIVhAqAKeq9hw4ZSBVfX3H0igrHn/z527VFcOMMEQBX0XqNGjaQKzs65eLrYJSFKkrDU/TafzgyAKhiCjz76SKrg5OSk+wVPBrtKFU4GuzFJAFTBEDRp0kSq8OTJEx0vlZGVtUTr0xSc4iOYJACqYAiaNm0qVXj0SNcPUHsYFyZJ+NXDhjECoAoGolmzZlIFBwcHHS+lfZLUMyHujBEAVTAQzZs3lyo8ePBAl4vEZ6TNc7WUKrgmRDFGAFTBQLRo0UKqYG9vr8tF7kQHSRJWet5lhgCoguFo2bKlVOH+fZ0+b3mX/yOpwvlQPmMHAFUwIK1atZIq2NravnD78NSk6U7XpQqeiTHMEABVMByfffaZVOHu3Rf/OcgyKkCSsMbLlgECoAoGxcjISKpgY/Pi15ju8X8sVbjIn48AUAUD06ZNG6nC7du3c944OTND+9VHHvz5CABVMDBffPGFVMHa2jrnjR148xoAqmDY2rVrJ1W4detWzhuf0Dr3kfK/mR4AqmBovvzyS6mCpaVlzhuv8LCRKijrBqYHgCoYmg4dOkgVbty4kcOWXokxkoT5LpbJmelMDwBVMDRfffWVVMHCwiKHLS+H+0gV9vk/YXQAqIIB6tSpk1Th77//zmHLrT4PpAq3o4MYHQCqYIC6dOkiVbh27Vp2m0WmJU/7bxKU/5T/l9EBoAoGqGvXrlKFK1euZLeZ9hnxtvo+YG4AqIJh+vrrr6UK5ubm2W12MNBRqnAl3Ie5AaAKhql79+5Shb/++uu522RkZS1ys5Iq+CbFMjcAVMEw9ezZU6pw6dKl527jGB8hSTD2vMfQAFAFg9WrVy+pwsWLF5+7zZkQd6mCGZ/HCYAqGLA+ffpIFc6fP//cbVZ53pMqOCVEMjQAVMFg9e3bV6pw7ty5ZzcISImXJCx2tcr8J4uhAaAKBqt///5ShTNnzjy7wd8RflKFw4FOTAwAVTBkAwYMkCqYmZk9u8EOXwepwr2YYCYGgCoYskGDBkkVTp069dRXY9NTZzlZaJIwy/mG8v8yMQBUwZANHjxYqnDy5MmnvmofGyoLhZ1+DowLAFUwcEOGDJEqHD9+/KmvntZ6Ter1SD/GBYAqGLihQ4dKFY4dO/bUV9d62UoVvHhLMwCqYPCGDRsmVTh69Kj2lyLTkiUJC11vMSsAVMHwffvtt1IFU1NT7S/djwmRKuz2f8ysAFAFwzdixAipwuHDh7W/dDLYTapwLcKXWQGgCoZv1KhRUoVDhw5pf0n7RBceiTHMCgBVMHyjR4+WKhw4cED+PULrSYV5LpaZWZzoAgBVUIGxY8dKFfbt2yf/bhv7vycVTHinAgCqoBLjxo2TKuzdu1f+/XiQKx++BoAqqM6ECROkCrt375Z//9XjjlTBLSGaQQGgCqowceJEqcKuXbs0/xiWmiRJmOlskZ6VyaAAUAVVmDRpklRh586dmn+8GxMsVdjq84ApAaAKajF58mSpwo4dOzT/eCTQSapgHu7NlABQBbWYMmWKVOH333/X/OPPbtZSBdfEKKYEgCqoxdSpU6UK27ZtU/4lNDVRkqD8l8aTCgCognpMnz5dqrBlyxblX6yjAiUJG33sGBEAqqAiM2bMkCps3rxZ+Zf9/k+kCudDPRkRAKqgIjNnzpQqbNy4UfmXBa63pArOCZGMCABVUJFZs2ZJFTZs2BCUkqD9pEJKZgYjAkAVVGT27NlShXXr1t2I9JckrPGyZT4AqIK6zJkzR6qwdu1aE79HUoXTIW7MBwBVUJd58+ZJFVavXr1I650KDnHhzAcAVVCX+fPnSxVWblin/aRCbHoq8wFAFdTlp59+kios3fO7JGGh6y2GAxgkJyenX375JTy8RPwxgCqUOIsWLZIqLDi+T6qwk0/aAQyUq6ur8vv+8ssvz5w5093dnSrgXxYvXixVmGN+XKrwFyfFAwyUh4dHKS1jxoyxtS22FxxShRJnyZIlcueYcfeiVOFJfATDAQySt7d3qWf079//2rVrVAH/LF26VHOfKFP2Fe2nmuMy0hgOYJD8/PxKZaNjx46nTp2iCqq2bNkyzb2h2ieNJQnL3O8wGcBQBQYGlspR8+bN9+zZQxVUavny5Zr7wcdD+0gVdvk9YjKAoQoNDS2lg9q1a69bty45OZkqqMuKFSv+/8rxl1l8/hqgBhEREaV0VqlSpcWLF4eEhFAFtfjtt980t/23Fw9IFZziOVUqYLCio6NL5VLp0qWnTZvm4uJCFQyfsbGx5laXJEx3uh6fzlPNgMGKi4srlVcjR460sbGhCoZs1apVyi39dt0PpAqrPO8xFsCAJSYmlsqfPn36mJubUwXDtGbNGuU2btC7s1ThYIAjYwEMWEpKSqmC0L59+2PHjlEFQ7N27Vrl1u3w8w9ShSvhPowFMGDp6emlCk7Tpk1NTEyoguFYv369crsOO7dXquCSEMVYAAOWlZVVqqDVrFlz9erVCQkJVEHvbdiwQfup5jkuNxMz0hkLYNheeumlUoWgQoUKP/30U2BgIFXQY5s2bXrj3apShQ3e95kJUCCPx9PT01NSUpSHz7GxsVFRUeHh4SEhIcoR08/Pz9vb28PDw9XV1cnJ6fHjxw8fPrSzs7t3796dO3esrKxu3Ljx999/X7ly5a+//rp48eK5c+fMzMxOnjx57NgxU1PTQ4cO7d+/f8+ePSYmJtu3b9+6davyW7xu3TrlofrKlSt//fXXX3755eeff164cOH8+fPnzJkza9asGTNmTJ06dfLkyRMnThw3btzo0aMLqQri+++/d3TU6RlKqlDibN68uW7X9lKFY8EuzAQFKCMjIzU1NSkpKT4+PiYmJjIyMiwsLDg4OCAgwNfX18vLy93d3cXFRTmCPHr06MGDB/fv37979661tbWlpaWFhcW1a9cuX778559/Xrhw4ezZs6dPnz5x4sQff/xx5MiRgwcP7tu3b/fu3Tt37vz999+Ve7Ky8F27du2qVat+++235cuXL126dPHixcpD13nz5s2ePXvmzJnTp0+fMmXKpEmTJkyYMHbs2JEjRw4fPnzo0KGDBw8eMGBA3759e/Xq1b17965du3bq1KlDhw7t2rVr06bNZ5991rJly+bNmzdt2rRx48YNGjSoW7du7dq1a9asWb169WrVqlWpUqVSpUpvvvlm+fLlX3vttVdeeaWwj7n6YtiwYcpNSRX0jPJAo/3CaVKFm5H+zKTwHjYmJibGxcVFR0dHRESEhoYGBQX5+/v7+Ph4enq6ubk5Ozs/efLEwcFB+2HjzZs3r1+/fvXqVXNz80uXLp0/f/7MmTOnTp06fvz40aNHDx8+fODAgb179+7atUseNq5fv37NmjXGxsYrVqxYtmzZkiVLFi1atGDBgrlz5/74448//PDDtGnTlIdy3333neZh44gRI5Tf3iFDhgwaNKh///59+vTp2bPn119/3aVLl6+++urLL7/84osvPv/889atW3/66afNmjVr0qRJo0aN6tevX6dOnQ8++KBGjRrvvffeO++8U7ly5YoVK1aoUOH1119/9dVXX3755dKlS3NkVC3lDqDc5ZQ7OVXQM9u2bfuP2W6pgkdiTOF9r8zMzLS0tOTk5BeuqbUfNt6+ffvWrVu6rKnlYeOWLVs2btyoy5paHjaOGjXq22+//c9//vPNN98MHDiwX79+vXv37tGjR7du3Tp37tyxY8f27du3bdvWyMhIHjZ+9NFHDRs2rFev3ocfflirVq3333//3XffrVq16ttvv/3WW2+98cYb5cqVK1u2bJkyZThAQFWUu73yi6bjSTKoQomjPMCUJIy3PD1qwvgXrqnlYeMnn3zy8ccf67Km5mEj1Ea5wyt3e2XNpKyclF8E5ddB+aVQfjWUXxDl10T5ZVF+ZZRfHOXXR/klUn6VlF8o5ddK+eVSVmbK+kxZpSm/dMqvnvILqPwaKr+Myq+k8oup/HqOHDlyzJgx48ePV1Z7yppPWfkp6z9lFag8MP/pp58WL168dOnS5cuX//bbb6tWrVq7du2GDRs2b96sPP7bsWOHsqZUVpbK+lJ51FIYP7Xyy67sQ1hYGM826/NaYbeJVKGPySp+mVGwXnrppVdeeUU5WCiHIWUJpSyklOWUsqhSllbKAktZZimLLWXJpSy8lOWXsghTlmKfffZZmzZtlMcfyhJNWagpyzVl0aYs3ZQFnLKMUxZzypJOWdgpyztlkacs9ZQF35QpU6ZPnz5z5kxlIag8SlUWhcrSUFkgKstEZbGoLBmVhaOyfFQWkcpSUllQKsvKffv2HTx48MiRI3/88Yey6FSWnsoCVFmGKotRZUmqLEyV5amySFWWqsqCVVm2KotXZQnr6Ojo4uLi7u6uLG2VBa6yzFUeEStLXmXhqyx/lUWwshRWFsTKsriE/+Irt0LB3tBK/BYtWhQRketP66IKJc6OPbvXme4ft/G3r5bPbjtnEkexQlKmTBnNw8YKFSpUrFixcuXK77zzznvvvVejRo0PPvigTp069evXb9SoUZMmTZo1a9aiRYtWrVoZGRnJw8YuXbp8/fXXPXv27NOnT//+/QcNGjRkyJBhw4aNGDFi9OjR48aNmzhx4uTJk6dOnSoPGxcsWKD8li5ZsmTZsmUrVqwwNjZes2bN+vXrN23atHXrVmWNaGJismfPnv379x8+fPjo0aPHjx8/derUmTNnzp8/f+nSJXNz86tXr16/fv3mzZtWVlZ37ty5d++enZ3dw4cPHz9+7Ozs7Obm5unp6ePj4+/vHxQUFBoaqhwRoqOj4+LiEhMTU1JS0tPTs7Ky+BUrmZQwF9R9W+m9cjdTbvq87QlVKKGUo0NRPmwsX768jmtqedjYoUOHTp066bKmloeNs2fPnjdvni5rau2HjSdOnDh9+vTZs2cvXLjw559/Xr58+dq1axYWFpaWltbW1jY2Nra2tvb29toPG728vHx9fQMCAoKDg5W1c2RkZExMTHx8fFJSUmpqakZGBncwlDTKWi3/v9HK4k9ZkCmLpPzsCVUooZ48eaJ52Hjo0CFTU9Njx469cE0tDxudnJxcXV09PDz0fU0NqEetWrXy0wPlIZ3yMEt56JP/PaEKAFD8Pvzww7z1oHLlyitWrEhMTCyoPaEKAFD86tWrl9seVK1adeXKlQX+gZ1UAQCKX8OGDXXvQbVq1VavXp2WVigfxkUVAKD4ffTRR7r0oHr16mvXri3UV0xQBQAofk2bNs25BzVq1Fi/fn0RvLaYKgBA8WvevHl2PahVq9bGjRuLbE+oAgAUv5YtWz7bg9q1a2/evLmI94QqAEDxMzIy0u5BnTp1tm7dWix7QhUAoPi1bdtW04N69ept3769GPeEKgBA8Wvfvn3Dhg137txZ7HtCFQCg+O3atauE7AlVAABQBQAAVQAAUAUAAFUAAFAFAABVAABQBQAAVQAAUAUAAFUAAFAFAABVAABQBQAAVQAAUAUAAFUAAFAFAABVAAAUqY65MWHCBGNjY1NTU1tbW6oAAIZchdq1a5fKjeHDh5ubm1MFADBY9erVk4P+0qVLjxw5YmNjExkZGRYWZmFh8fvvvw8YMOCpNpiYmFAFADBMTZo0kcP90aNHn7uNtbV1z549tcOgBIMqAIABKl26tBzr79+/n91m7u7u5cuXly2/+OILqgAAhsbJyUkO9NWrV09MTMxh4y1btsjGVapUoQoAYGhOnTolB/qvvvoq542VlYT2H5ECAgKoAgAYlGXLlslRftKkSTlvHBQUlN1TC1QBAAzB0KFD5Si/YcOGF26vXQUPDw+qAAAGpWnTpnKUv3jxYs4be3p6alchJSWFKgCAQSlTpozmEP/SSy/5+vrmvPHVq1clCd27d//XGoJRAoC+c3FxkaN8o0aNXri9iYmJbL99+3aqAAAGxczMTI7y/fr1e+H248eP12xcqVIlPz8/qgAABmXFihVShblz5+a88aVLl2TjGTNmPPVVqgAAem/48OFyoN+3b1/OG3fq1Emz5auvvmpnZ0cVAMDQNG/eXKrw7IFe26JFi2TLrVu3PrsBVQAAvVe2bFnNgb5ixYqZmZkuLi7P3ez777+XJJw4ceK521AFANBv7u7ucqw3MjJS/sXCwuLLL7+cNm2a5o0Lly9fVpYI3bp102zTsmXL7JJAFQBA7507d06qMHLkSE0V2rZt++wn7bRr1+7ZD1SgCgBgUIyNjeW4v3btWvn3qKioM2fObNy4ccOGDcriwNHRUZdrowoAoN+U9YFU4cqVK/m8NqoAAPqtZcuWUoXQ0FCqAACqVq5cOU0SatWqlf9rowoAoMe0z3761HnuqAIAqM6FCxekCvPnz6cKAKBqq1evliocPXqUKgCAqo0ePVqqoONrT6kCABisFi1aaJJQtmzZArlCqgAA+ioiIkIWCq1ataIKAKBqZ8+elSp07NiRKgCAqs2ZM4cqAAD+LysrqyZNmkgVqlat+sIz31EFADA0S5cuLaWDQ4cOUQUAUEUV9uzZY5G9Y8eObd68+fLly1QBAJBfVAEAQBUAAFQBAEAVAABUAQBAFQAAVAEAQBUAAFQBAFB4/g8DVooda7rsQwAAAABJRU5ErkJggg==;" vertex="1" parent="1">
          <mxGeometry x="429.61" y="425" width="144.4" height="138" as="geometry" />
        </mxCell>
        <mxCell id="I1JThzbMCgrEHhUARHG0-16" value="" style="shape=image;aspect=fixed;image=data:image/png,iVBORw0KGgoAAAANSUhEUgAAAgkAAAHqCAIAAAABOEoeAAAACXBIWXMAABJ0AAASdAHeZh94AAAgAElEQVR42u3ddXwU1/v34ZTikBZ3bygtVqxYKcWhOMWd4O5uoRS34FLc3YtTgnuhQHEad3dZyzP97vM7u5uEsPHd2ff14o92d3Z29p7JfOaMnGMVCwCAIStKAAAgGwAAZAMAgGwAAJANAACyAQCQntlgZ2dn9RFGzq5Ro0ZWn+Lk5JSBP1j6diujZcmSpXDhwt9++239+vUXLFgQEhLCFgPA4rLhwoUL27ZtW7hw4fDhw/X38g0aNDBydidPnty0aZOUMb1799bfyZYoUaJr166LFy/eu3dvTExM+vy2y5cvx3/RwcFh//799vb206dP79Gjh/5C5s6dW1rOypUrS7+3evXqJUuWzJkzp/4EUkhs3LgxzgwPHDjAZgRAztnwsTaEtBtN4eG5FBjp/MNatWpVvnz5p0+fGr+QDx48iD/N6tWry5Ytqz/Zvn37xLszZ86UXtmxYwdbEgCLyAap6SD2hufOnUvqfCMiIvT3p56enun5q+rUqSN9ad++fY0PsEKFCgUFBSU4mY+PT9OmTcWU1tbW9+/f17519erVvHnzSi+ePXuWjQmA/LOhU6dOYm8o7RyTOl/pgF18vFy5cuncYpC+tGrVqm5ubolPKWWekefNXr9+LYWHmHj06NHiLanRoH3x7du3bE8AZJ4NtWrVSuqFaH2HDh0SH+/QoUO6/Z4VK1Zov/TixYufnHj58uViIQcOHJj4xAsWLBATN2/eXP8tcf4tNDSUTQqAnLMhS5Ys2v2ddACejPnOnz9f7Elnz56dPj/mxIkT2m+cMWOGMdPb2tqKhVy6dGniE2/atElMXLJkSf23YmJitGexGjVqxCYFQLbZ8OrVK7EfHDlyZDLmq3+f0uHDh9Phl9y6dUv7ddWrVw8LCzPmI9odutbJkyeNDB5JtmzZ4rx76tQp7VujRo1iqwIgz2w4ePCg2A/u378/GfP9/vvvxRykpEnrn+Hp6VmhQgXt1x05csTIT1lbW4uFfPPmTeITX7hwQUz81VdfxZ9g2LBh2nft7OzYsADIMBumT58u9oMvXrxIxny/+OIL8fhYOvwMccbf1tbWyI+4urom6Wr5hg0bxPQJnjtycXEpUKCA9jmJ58+fs20BkFs2tG7dOiUXovV3uzVq1EiHRkOxYsW0X+fg4GDkpy5evCgWslWrVp+cfuLEiWL6rVu3JjjNwIEDtRP079+fbQuA3LKhePHi2n1cmTJlkjHTP//8U+xG02EvKRoNSboUvGrVKrGQY8eO/eT07dq1E9M7OjomOM3p06dT8lAIAJhuNvj5+YkdXJ8+fZIx0y1btog5rFixIk1/QFBQkBRgyfiuwYMHi4XcsGGD8Wk3dOjQRKYUCzNo0CA2LwDyyQb9/aC9vX0yZjpp0iQxh0uXLqXpD5CWUHyX8SeUJPXr1xcfvHnzZuIT659ke/z4cSJTDhgwQDtZnjx50vlpcABIw2zQP9ki5UQyZtq2bdt06y2jWrVq2i/Knj17kj4o7bvFB4ODgxOZctu2beLnTJgwIfHZHjlyREy8fv16tjAAMsmG/v37i72bv79/Mmb69ddfaz9esGDBNF3658+fJ37v0Md4eHiIDyb+cN/WrVvFlFLrwaia/p/OnTuzhQGQSTaII/F8+fIlY45hYWFi59ikSZM0Xfr9+/eL75o0aZLxH7xy5Yr4YJcuXaRX5s2bd+rUKaVSKaZxdXVduHChmMz4pxZsbGy0HylcuDBbGACZZEOmTJmSdJgcx5MnT8T+dNy4cWm69PrPYSRpHIU1a9aID86ZMyf2/252yp8/f8uWLceOHSsCUlKpUiX9frk/6eeffxafffToERsZALPPBv2zNEb2ShSH/gn3bdu2penSt2nTRnxXkrpBFc8wS44dO6Z9ccuWLTVr1tTvWrxKlSqLFy8OCAhI0lKNGTMmhRfzAcC0smHv3r1iv3bw4MFkzFH/PEyCo+WkosqVKyfvGb0GDRqID757907/LTc3t7t37758+TLZI4BKcSJmPmXKFDYyAGafDdK+LIX9IOl3bhoZGZmmS68dVycZ2ZAvXz7tpwoUKJDqS6Xfu8bw4cPZyACYfTa0aNFCu1PLnDlz8uYoDsnLly+fposeZ2g54z/o5eUlPlW/fv1UXzD9tlfv3r3ZyACYfTYULlxYu1OrVatW8uYo5vDLL7+k6aK/e/cuedmg/3DfsGHDUn3B9HvOaNeuHRsZAPPOhvDwcLFT69SpUzJmpz8Cc1p3Ve3g4JC8bFi3bp341MaNG9N0wRjtB4DZZ4P+nj15J8qPHj0a//6fNKLf26vE+EvHI0aMEJ+6ffs27QYASCwbHj58mJKj/osXL+bIkSN5N5UmT7Zs2cTXubm5Gfmpn376SXzKyBHikoTrDQBklQ2Ojo7JPuC9d+9eoUKFunbt+rFRM9NCxYoVxQK/fPnSyE8VLFjQ+CF9koH7lADIKhti9bqYLlasmPFzefLkibSflYKhc+fOKbyUnST6YyrcvXvXmI/onzdL3jWVT+L5BgByy4ZevXqJ/drkyZM/+XmlUvnbb7/lypVLCoZYvZuUOnbsaOQSvH//fu3atdIuO/5bT58+tbe3T6QzjPHjx4ulPXnypDFft3PnzrS+Wq6/VDwXDUAO2aA/LE8ig19qnTp1qm7dutJk2mCQckJ8cMiQIcZ8/Zw5cxLcTa9evbpChQratwYMGPCxj+vfcWTkXliMr5B22SDlopGDPQCAeWSDJE6fQk2bNj19+vTz58/9/f1jYmKkA/y7d+9OmjRJ29totmzZpHaD9oP6925+crd7+/btevXqlS5dWjv9kSNHxFtDhw4tU6aMuCowcuTIj83k/Pnz4hulo3VjfrA4aZZ2J3xEP3158uRhCwMgk2xwcXGxMk7btm3v378vPiiFhP67ffv2XbFixZ49e86ePRvnK+bNm9e5c+c3b96IOPn333+1bxUpUkS0ALRv7d27N5EfkDNnzk+exfrjjz+2bdtm9z/6S9ioUaM+ffosWrRo+/btJ06cSK1jfDFqEDewApBPNmgtWbIkkVRo0aLFjh074nykZcuWCU4stQ/iTCnuKdKOnFOiRAnt/5YsWVJ0zyftqbUf//DhQyI/YPTo0drJSpUq9bFppAwwJupSZYi69+/fixlKEcgWBkBW2RD7v0vBO3funDVrVs+ePZs3b96jRw9pRywdeku7v9T6+qlTp0r70O7du0v/3bRp0wsXLoi3tFc+Pjly3J07d8S++O+//87wgq5du1YMNRqnh1cAkEM2pINffvlF2o2uW7duxIgRca57ay8at2/f/pMzqV69unZ3vGLFigwvqBjYZ+DAgWxeAMiG5Khataq2U6P4p1+0F40XL178yZmI5wlatWqVsT9H/4TS1atX2bwAkA3JkSNHjvz58+fNm9fZ2Vn/dfGE2qVLlz45k5cvX4o9ciqe70oGcUIpw1MKAMw1G16/fi3tRgsVKjRx4sQ4b4kn1Hx9fY2ZVYcOHbTTS3vnDPxF4oRS8obMAwCy4f/3Sff5558/f/48zlvaiw01atQwclaPHz/OlSuX9BFp75xRP0dcFa9bt24KZ2Vk/x8AIMNsGDt27MeGANJebBg8eLDxcxM33Uptjgz5OZ06ddIuwO7du1M4qxYtWiiVSrZOAJaYDfXq1ZP2pOKxakFcbNiwYYP2FT8/P2Nm2KxZM+lTlSpVMn4sh9SyZ88e7TKPGTMmhbO6fv26NJ/ly5ezdQKwuGxwdnbOnDmztBM8depUnLfOnj2r37XqoUOH2rRpY8w8b9y4of3gnDlz0vO3hIWFaW+4iv+UXzJo+7ItXrw4WycAi8uGkydPfmwIINHfn/QfUioMGjQoIiLCyNlqr2HkyJHjyZMn6fZbtF1xZMmSJeWzEk+DS9asWcMGCsCysmHu3Lna8z8f29VK8uXLt3nz5qTOWfqI9NkmTZqkxZhuH0sjybNnz1I+t/79+4tsKFu2LBsoAMvKhgULFmzatEm/+1Xh/PnzjRo1khIi2X1g2Nvbp8+Yaw4ODlKAJWnUuURITag4XTxt3LiRbRSABWVDWlu0aJHUKEmVXXYipABLxW8ZNWpUnGyoUKEC2ygAsiE1pXUwpO63eHh4JNg77LZt29hMAZANFmr69OkJZkPlypUpDgCywRKFhIRon+tO0J49eygRALLB4ixYsCCRQYeM7zsEAMgGmdBoNIULF058TDo67wNANliWNWvWfHK80jp16lAoAGSDBbGxsTFmOOvjx49TKwBkg0XYvn27lXF+/PFHygWAbLAI1apVszLa2bNnqRgAskHmDh8+bJUUTZs2pWgAyAaZa9CggVUSXbx4kboBIBtk6/z581ZJ16pVK0oHgGyQrZ9//tkqWa5du0b1AJANMnTz5k2r5Grfvj0FBEA2yFDXrl2tUuDWrVvUEADZICtPnjyxSpkuXbpQRgBkg6zY2tpapdiDBw+oJACyQSbev39vlRp69uxJMQGQDTIxduxYq1Ty9OlT6gmAbDB7Xl5en332WWplQ//+/SkpALLB7M2cOdMqVf3zzz9UFQDZYMbCwsKsra1TNxuGDBlCYQGQDWZs0aJFVmng3bt31BYA2WCuihYtmhbZMHLkSGoLgGwwS+vWrbNKM87OzlQYANlgfr7++uu0y4bx48dTYQBkg5nZuXOnVRrz8PCgzgDIBnNSo0aNtM6GKVOmUGcAZIPZOHbs2OjRo8eMGTNu3Ljx48dPnDhx0qRJ0q586tSp06dPnzFjxqxZs2bPnj137lw7O7uRI0eK3X2RIkWWLl26bNmyFStWrFy50t7efvXq1WvXrl23bt2GDRs2bty4efPmLVu2bN26ddu2bTt27KDUAMgGeXrx4oXIhsqVK1MQAGQDYv/55x+RDRUrVqQgAMgGxL569Upkw7fffktBAJANiH39+rXIhgoVKlAQAGQDYt++fSuy4euvv6YgAMgGGIz8Y2NjQ0EAkA2I/fDhg8iGr776ioIA6UfpqA5ZRxnIBlPk6OgosqFs2bIUBEjjPHBWh25TendSOGZTOH4u/aMkZIMpcnJyEtlQpkwZCgKkSfsgbJ/Kt5fSOY82D/T/aWKeUyGyweS4uLiIbChVqhQFAVIpDz78Lw8GKl2KxM8D/X+qoAVUi2wwOa6uriIbSpQoQUGAFOTBO3XYHrX/KIVrmcTzQPfPpYTKfwyVIxtMjru7u8iG4sWLUxAgSTQxr9Whu1R+I5Ru3xqZB0r379RBv2pinlE9ssF0eXh4iGwoWrQoBQGMyIOX6tAdKr9h0l7eyDxQeTX975YkxUuqRzaYBy8vL/1+WCkIkDB1hDritMp/jNK9inF5kEXp000dup08IBvMkre3t8iGQoUKURDAoImg8v7fJeUBSpcSRlw8KKryG0IekA1y4OvrK7KhYMGCFAT4LxIU79Uhm1TenRXOX37q4kEV8oBskCE/Pz+RDfnz56cgsOhIiH6qCl6m9GpBHpANli4gIEBkQ758+SgILJA66qYqcK7So94nIsGzsTpokSbmMRUjG+QvMDBQZEOePHkoCCyGQh1xTuU/QemW+LXlbEqvtuqQNbGKV5SMbLAgwcHBIhu+/PJLCgK5txEC1GGHVL6DP/F4mnM+lU93deg2jdKZmpENligkJERkg7W1NQWBPCmdNaHblD7dFc75E73RqKTKb6Am/KBG5UfNyAaLFhYWJrIhd+7cFASyovJWh/6u8m6rcMya2IUEt29U/mM0EWdiNZHUjGzAfyIiIkQ25MyZk4JAFjSaiFNSCyDxVoLSvYY6cLo68ir1IhsQV2RkpMiGHDlyUBCYdyZE35V294pEuzZSev6oDpqvibpHucgGfFR0dLTIhmzZslEQmCXle3XwSqVHw0R7NGqlCl7BYAlkA4wSExMjsiFr1qwUBOZEHaIJ26v07pLI5QSlR11V0GKN4jXVIhuQlOMtpVJkQ+bMmSkIzIIm8pLKb6Ti430cKV1L/Xd5OfJPakU2IDlUKpXIhkyZMlEQmHQkxDxVBc5TuldP7NyRT2d12J5YTSjlIhuQgj82jUZkw2effUZBYJKHMO7qkA1Kr5aJXWHm3BHZgNQlRYKIB6oBU6JQhx9V+fZVOH3JuSOyAektU6ZMIhvUajUFQcY3ZxVvVAGzla7lOXdENiDDZM6cWWSDSqWiIMjIVIi+o/IbrnDKxbkjsgEZLEuWLCIbFAoFBUGGUEecUnp35twR2QBTkS1bNpENMTExFATp3FJQh25Vef7EuSOyAaYle/bsIhuioqIoCNKJyl0dvFjpVukjXaKWUAVM4zFmsgEZJmfOnCIbIiPphxJp31SI+VvlP0nhXOgjVxS+VwXba1S+FIpsQEbKlSuXyIbw8HAKgrSjjryi8u3/0dNH3u014YepEtkAk2BtbS2yITSUs7pIm1QIP6j0ap1wKjjlVvkN00TdpEpkA0zIF198IbIhJCSEgiBVMyFIHbJW6f59wqngWl4VOE+jeEedQDaYnDx58ohsCAoKoiBIFdIeXx1op3Qt95FBFBqqQ7fEajiHCbLBVOXNm1dkQ2BgIAVBSlMh5vl/naQ6WX/kntTu/42+CZANJi5//vwiG/z9/SkIkp8KShd14LSEn2p2LqjyH6+JfkSVQDaYhwIFCohs8PPzoyBIDnWIOmiRwqV4QsMyV1UHL9Uo3SgSyAZzUqhQIZENPj4+FARJz4WNioQeYVN6tfzvkeZYOnAE2WCGChcuLLLB29ubgiAJqRB2QOX5Q0KDMzdXh5+kPiAbzFjRokVFNnh6elIQGJUKEedV3m0Seqq5jjp0N/UB2WD2ihUrJrLBw8ODgiBxmqi7Kt/eCaSCW0V1yDrpfUoEskEOSpQoIbLBzY0Lhvh4KsS8VPmPSqgD7RKqoIWx6mBKBLJBPkqVKiWywdXVlYIgASpPVeAspXOeuKng/IUqYHqsks0GZIPslC5dWmSDs7MzBYFhYyFSFbRM6VomgQvOfiM1ipdUCGSDPJUtW1Zkg5OTEwWBoA75Xen+XQKp4NtHE32P+oBskLNy5cqJbPj3338pCP5rLYQfVSY0FpvSu70m8hL1AdkgfzY2NiIbPnz4QEEsPRWiH6i8OyXUO14jKTCoD8gGS1G+fHmRDe/e0VuyJcdClCpwnsIxe7xOL2qow7ZTHpANlqVChQoiG96+fUtBLDQXIk4qPerEuzm1vDrEPlYTQ31ANlicb775RmTD69evKYjFpYLiX5Xf0HgnkbKpg37VqOh7EWSDpapYsaLIhpcvuSXRsqhDNihdS8XrI68ttyGBbLB0lSpVEtnwzz//UBBLaS5E3ZYyIG5zwaWIKngNxQHZgNgqVaqIbHj+/DkFsYBYCFMHzlY4Zo731ELfWAUnFUE24H+qVq0qsuHZs2cURN7U4UeU7jXidZP37f8GWgDIBvyfatWqiWx4+vQpBZFta0HxRulrm8BDzv5jNSov6gOyAQaqV68usuHJkycURJ7NhZDVCpei8cZaqKeOOEtxQDYgATVr1hTZ8PjxYwoit1SIdFB6tYzXXMiiCrSL1URTH5ANSFitWrVENjx69IiCyCgWAlUB0xIaxrm1Juo25QHZgMTUrl1bZMODBw8oiExyIWy/0q1K3FRwKaQOtqc4IBvwaXXq1BHZcP/+fQpi7jTqYJXfiIQ61u6tieHZRpANME69evVENty9e5eCmHdzIfK60qNuvFtUK6jDdlEckA1Igvr164tsuHPnDgUx42AItlc4ZY93i+pojcqD4oBsQNI0aNBAZMOtW7coiDnSKD1Vvv3jNRcqqsNPUhyQDUiOhg0bimy4efMmBTG/5kLEeaV71fgdYGiUrhQHZAOS6aeffhLZcP36dQpiXlRBC+NednbKyc1IIBuQUo0bNxbZ4ODgQEHMhvJfpXfXuM0Fzx81UZwYBNmAFGvSpInIhj///JOCmAVNxHGFa/l4l53Hx2oiKQ7IBqSCZs2aiWy4evUqBTF96sA58cZdKKkO20tlQDYg1TRv3lxkw+XLlymISTcXYv5ReccdkEfp3VGjeEVxQDYgNbVs2VJkw8WLFymI6TYXwvYqXUvECQZ10G9UBmQDUl+rVq1ENly4cIGCmGR7QaEKmBS3ueBeTRPJ+gLZgLTRunVrkQ3nzp2jICaXC9EPlZ5N4l529husUflQHJANSCtt2rQR2fDHH39QEJOiDt2idM5nEAzOedWhm6gMyAakrXbt2olsOHPmDAUxHSr/ifGGXmgmNSOoDMgGpLn27duLbDh9+jQFMY32QoDKp0vcy86B06U3qA3IBqSHjh07imw4eZKu2TLefxcY3L837DWvvDr8CJUB2YD006lTJ5ENJ06coCAZHAzhxxQuRQy7wWikUbyhMiAbkK46d+4ssuHYsWMUJAOpg1fGvcDg0016lcqAbEB669Kli8iGo0ePUpCMovIfH69/pDGUBWQDMka3bt1ENhw+fJiCZAildyceeAbZABPSvXt3kQ2HDh2iIOlNE6J0rxk3GEJ/pzAgG5CRevbsKbLhwIEDFCRdcyH6kcK5oGGPqkU0keepDMgGZLDevXuLbNi/fz8FSTfqsH3xukiqqlE6UxmQDch4ffr0Edmwdy9jAKRXMATZxb3y7NWcsoBsgKno16+fyIY9e/ZQkHSg8ukR717V3pQFZANMSP/+/UU27Nq1i4KkNaV79XidYcymLCAbYFpsbW1FNuzYsYOCpB2NOlzhnD9uMIRx/R8gG0zPwIEDRTZs376dgqRVMMQ8jTvIs2PW2JjnVAYgG0zR4MGDRTZs3bqVgqRJMERdi3uBwaVkbKyKygBkg4kaMmSIyIbff+eRqzQIhsjLcYPBsxFlAcgGkzZs2DCRDZs3b6YgqUsdcT5eL0mjKQtANpi64cOHi2zYtInBJlM3GM7EDYbA+ZQFIBvMwMiRI0U2bNiwgYKkFk3EybjBELSIsgBkg3kYNWqUyIb169dTkNQJhvCjcYMheBllAcgGszFmzBiRDWvXrqUgKacOPxj3IYbgVZQFIBvMydixY0U2rFmzhoKkNBjC9sYNhhASFyAbzM348eNFNtjb21OQFAVD6M54wbCRsgBkg/mZMGGCyIZVqzj1kZJg2MoQPQDZIBOTJk0S2bBixQoKktxg2ByvoyQ6pwLIBrM1efJkkQ3Lly+nIMkJhpD1cYJBE0Zv5wDZYM6mTp0qsmHp0qUUJOnBsDpei4Hh8wCywcxNmzZNZMOSJUsoSNKCIXhFvGA4TFkAssHszZgxQ2TDokU8uJsEqqAlcYMh/DhlAcgGOZg1a5bIhgULFlAQo4NhQdxgiDhNWQCyQSZmz54tsuG3336jIEYFQ+C8eMFwjrIAZIN8zJ07V2TDr7/+SkE+SRN+PO5dSZGXKAtANsiKnZ2dyIZ58+ZRkE8Eg+JNvGD4k7IAZIPcSG0FkQ1SG4KCJEYdFi8YrlIVgGyQofnz54tsmDNnDgVJhNK1tGGXGAyvDZANMrVgwQKRDbNmzaIgHw0Gr9aGI7hRK4BskK+FCxeKbJg5cyYFSZAqYKpBMPj0oiYA2SBnixcvFtkwffp0ChKfOmy3fjAoPepRE4BskLklS5aIbJg2bRoFiUMTecng+rNLUWoCkA3yt2zZMpENU6ZMoSAGYp7FuTEpVuVJVQCyQf6WL18usmHy5MkURNdiUHkpXQoY3LEa/ZiyAGSDRVi5cqXIhokTJ1IQQen5k2E/enSXBJANFmPVqlUiGyZMmEBBtFR+wwwfZdhETQCywYKsXr1aZMO4ceMoiEQdZGf4KAOPBAJkg4VZs2aNyIaxY8dSEHXIBoM7Vn1tqQlANlicdevWiWwYPXq0pQeDYR+rSs9GsZoYNhKAbLA469evF9kwcuRISy6FJvqO0imH3qMMZTQKR7YQgGywRBs3bhTZMGLECMsNBsV7pXsVwztW77B5AGSDhdq0aZPIhmHDhlloFdRhSs+mhnesHmHbAMgGy7VlyxaRDUOHDrXMIqh8+xsEQ8hqNgyAbLBoW7duFdkwePBgSwyG4FUGd6wGTGWrAMgGS7dt2zaRDYMGDbK0n6+JclA4ZtXdmOTTm00CIBsQu2PHDpENtrYWdi+/OlDpUVsXDO5V6EoPIBvwn507d4psGDBggEX9dpXfUIMbkyL+YHsAyAb8Z/fu3SIb+vXrZ0FtBsPnn1WBv7IxAGQD/r89e/aIbOjbt6+lBEPUHYWTte5skncHtgSAbIDOvn37RDb07m0ZV2I1ESrPH3XB4FpKE/OSLQEgG6Czf/9+kQ29evWyhJ+s8h9j8DRD2D42A4BsgIGDBw+KbOjRo4fsf686dJvh0wwMZwSQDYjn0KFDIhu6d+8u7x+riX6scC6g183qT9JLbAMA2YC4jhw5IrKha9eusv6tKoNOk5ysNVF32QAAsgEJOHr0qMiGLl26yPiXqgMmG3aatJ61D5ANSNjx48dFNvzyyy+yDYawvQaXGfwGsuoBsgEfdeLECZENHTt2lOVv1MS8ULgU1+sb47tYlTerHiAb8FGnTp0S2dChgzwfAVN6tTY4mxRxnvUOkA1IzJkzZ0Q2tGvXTn4/UB04y7BvjN9Y6QDZgE84e/asyIa2bdvKLRjCjxgEg88vrHGAbMCnnTt3TmRD69at5fTTNIq3Stdyen1jlNEo3rDGAbIBn3b+/HmRDT///LOcfprSu5Nh3xgHWN0A2QCjXLx4UWRDy5YtZfO71EG/GvaNMZl1DZANMNalS5dENrRo0UIeP+q/vjGccun1jdE4VqNgXQNkA4x15coVkQ3NmjWTx49S+nTVBYNzHk30A1Y0QDYgCa5evSqyoWnTpnJoNITtMrjMELyStQyQDUiaa9euiWxo3Lix2f8ela/SraLuMoNXC1YxQDYgyRwcHEQ2NGrUyOyjwbBDPU2UA6sYIBuQZDdu3BDZ0LBhQ7P+LVISGN6bNI31C5ANSI6bN2+KbPjxxx/Nu9Hg1Uq/Qz2NOveSQRoAAB3DSURBVIj1C5ANSI7bt2+LbPjhhx/M94eoQ9YaXIIOP8TKBcgGJNOdO3dENtSvX99cf4byX6VrSd3ZJF9b1ixANiD57t27J7Khbt26ZvorVH7DdGeTXIrFKt6yZgGyAcn34MEDkQ21a9c2x5+gjjhtcAk6eA2rFSAbkCIPHz4U2fD999+bY5tB5fmDrtHg1Zp1CpANSKnHjx+LbKhZs6b5NRqCFho+0HCLdQqQDUipv/76S2RDjRo1zGvhNTF/K5y+1N2bFDibFQqQDUgFT58+FdlQrVo181p4lW8v3dkkj1qxmnBWKEA2IBX8/fffIhu+++47M1pyddg+g7NJEcdZmwDZgNTx/PlzkQ1VqlQxl8XWqAKVblV09yb5DWFVAmQDUs2LFy9ENlSuXNlsGg2BM3SNBpdSGsW/rEqAbECqefnypciGihUrmkejIeqWQfcYIRtZjwDZgNT06tUrkQ3ffvutWSyz0qut7mySdwdWIkA2IJW9efNGZEOFChVMf4HVoZt09yY5ZddE32clAmQDUtnbt29FNnz99dcmvrQapbvStayu0RA4jzUIkA1Ife/fvxfZYGNjY+JLqwqcpfdAQ91YTTRrECAbkPo+fPggsuGrr74y6UaD4rXCOa/uEnTEaVYfQDYgTTg6OopsKFu2rEk3GvzH6hoN3l1YdwDZgLTi5OQksqFMmTKm22iIeaxwzKzXp9411h1ANiCtuLi4iGwoVaqU6TYafG31hnXrz4oDyAakITc3N5ENJUqUMNFGQ5SDQddJ0Q9YcQDZgDTk7u4usqF48eIm2mjw6arXddJI1hpANiBteXp6imwoWrSoKTYaIs7oGg1OuWMV/7DWALIBacvLy0tkQ5EiRUyx0eDVStdoCJjCKgPIBqQ5Hx8fkQ2FChUytcVTh+3X3bfqUpj+VgGyAenB19dXZEPBggVNbfGUnj/oDflJDxkA2YB04e/vL7Ihf/78ptVoCNmsu9LgWlaj8mZ9AWQD0kNAQIDIhnz58pnOgmnUEUr3qrpGQ/AyVhZANiCdBAUFiWzIkyeP6SyYKni57kqDW+VYdRgrCyAbkE6Cg4NFNnz55ZemslhqH6VrOV2jIXQDawogG5B+QkNDRTZYW1ubSqMh0E6vL+7asbEa1hRANiD9hIWFiWzInTu3SSyT8oPCuaBeo2EnqwkgG5CuIiIiRDbkzJnTFBZJHTBJ12jwbMw6AsgGpLfIyEiRDTly5Mjw5dHE/K1wzK5rNIQfYR0BZAPSW3R0tMiGbNmyZfjyqPyG6nrI8G7LCgLIBmQAhUIhsiFr1qwZ3GiIuqXfF7c64hwrCCAbkAGUSqXIhsyZM2dwo8Gnp67R4NOdtQOQDcgYarVaZEOmTJkyckkizhsM4BN1nbUDkA3IGBqNRmTDZ599lqGNhl90tyf52rJqALIBGUmKBBEPUlRkTERF3TAc9fMR6wUgG5CRMmXKJLJBrVZnyDIofQfqrjT4DmClAGQDMljmzJlFNiiVygxoNMQ8Uzhm1t2eFHmVlQKQDchgWbJkEdmgUCjSfwFUeg9Cq7zbsEYAsgEZL1u2bCIboqOj07vRoHRRuuh6T9KEH2KNAGQDMl727NlFNkRFRaXzt6uDfjPschUA2QATkDNnTpENERER6dtqCFW4ltddaQhZx+oAyAaYhFy5colsCA8PT9dGQ8g6vRGhy2nUQawOgGyASbC2thbZEBoamp5frfT4XtdoCLRjXQBkA0zFF198IbIhJCQk/RoNYft0jQYn61jle9YFQDbAVOTJk0dkQ1BQ+p3VUXo219266jeSFQGQDTAhefPmFdkQGBiYTo2GiD8MO8m4x4oAyAaYkPz584ts8Pf3T58vVfl009266tOVtQCQDTAtBQoUENng6+ubDt+oibpj0GiIOMNaAMgGmJZChQqJbPDx8UmPRoPfMF2jwbMRqwAgG2ByChcuLLLBy8srzb9P8VLhmF1362rodlYBQDbA5BQtWlRkg6enZ5o3GgKm6RoN7lWkrGAVAGQDTE6xYsVENri7u6fpd2lUHkqXorpbV4OWUH8AZIMpKlGihMgGNze3NP0udfBiXaPBpUisyoP6AyAbTFGpUqVENri4uKRlqyFS4fatrtHgP5niAyAbTFTp0qVFNjg7O6dhoyFkk8GtqzHPKD4AssFElS1bVmSDo6Nj2n2R0qMeg0IDIBvMQ7ly5UQ2/Pvvv2nVaAg/pN9oYFBoAGSDSbOxsRHZ8P59WnWGqvJuzaDQAMgGs1G+fHmRDe/evUuLr9BE3TK40sCg0ADIBhNXoUIFkQ1v3rxJk0aD/yQGhQZANpiTb775RmTD69ev06LVoHD9iufdAJAN5qRixYoiG16+fJnq81eHH9Qb3y2rRvGWmgMgG0xdpUqVRDb8888/qT5/lU93vaEaulFwAGSDGahSpYrIhufPn6fy3JXvFY7ZdLeuhh+k4ADIBjNQtWpVkQ3PnqXys8rq4OW6E0quNhpNFAUHQDaYgWrVqolsePr0aSo3Gzx/0F2FDphCtQGQDeahevXqIhv++uuv1Gw0RDoYPAsddYdqAyAbzEPNmjVFNjx+/DgV56zyH6c39mcTSg2AbDAbtWrVEtnw8OHDVJuvJkzhUlp3Qil4LaUGQDaYjdq1a4tsePDgQWrNVh22V3dCyTmPRulGqQGQDWajTp06Ihvu3buXWrNV+XTWnVCiR24AZIN5qVevnsiGu3fvps5MFa8NrkJHnKbOAMgGc1K/fn2RDbdv306VeeqPC61wq0KRAZANZqZBgwYiG27dupUq81R61NFdhQ60o8gAyAYz07BhQ5ENN27cSIVGQ+QVw3Gh/6bIAMgGM/PTTz+JbLh+/XrKZ6jyG6W7Cu3dlgoDIBvMT+PGjUU2XLt2LcWthiCFS3HdVeiw7VQYANlgfpo0aSKy4c8//0xpNITt1J1QcimmUQdQYQBkg/lp1qyZyIYrV66kcG4q7w66q9D+oygvALLBLDVv3lxkw+XLl1MyK03MC4PHGiKvUF4AZINZatmypciGixcvpmRW6qDfdFehPepSWwBkg7lq1aqVyIYLFy6kZFZKj5q6E0pBS6gtALLBXLVu3Vpkw7lz55LfaIi4oDuh5JRVo3hLbQGQDeaqTZs2Ihv++OOPZM9H5TdMd0LJpxuFBUA2mLF27dqJbDhz5kzyZqJRBSicC+uuQocfpLAAyAYz1r59e5ENp06dSt5M1GGHdCeUXG00migKC4BsMGMdO3YU2XDy5MnkzUTlO0jvsYYxVBUA2WDeOnXqJLLh+PHjyZmFJkrhUkrXuR6jNQAgG8xd586dRTYcO3YsGXNQR5zR6yejeKwmgqoCIBvMW5cuXUQ2HDlyJBlzUPmP0Z1Q8u1PSQGQDWavW7duIhsOHz6cjDko3b7R63h1LyUFQDaYvR49eohsOHgwyfeeaiKv6j3yZh2r8qKkAMgGs9ezZ0+RDQcOHEjqx1UB0/RG8ulEPQGQDXLQu3dvkQ379u1L6seV7tV1J5RCNlBPAGSDHPTp00dkw969SbtaoIm+azA0NH0oASAb5KFfv34iG3bv3p2kz6qDftWdUPJsSjEBkA0y0b9/f5ENu3btStJnlR719TrlXkwxAZANMmFrayuyYceOHcZ/UBP91OCEUvRjigmAbJCJgQMHimzYvn278R9UBS3VG+WtNpUEQDbIx+DBg0U2bN261fgPKj2b6e5QCpxFJQGQDfIxZMgQkQ2///67kZ/SKN4YnFCKcqCSAMgG+Rg2bJjIhs2bNxv5KXXIOt0JJbdvKSMAskFWhg8fLrJh48aNRn5K5d2eARsAkA2yNXLkSJENGzYY92Cz0lXhlIMBGwCQDbI1atQokQ3r1q0z5iPq0O0M2ACAbJCzMWPGiGxYu3atMR9R+fRgwAYAZIOcjRs3TmTD6tWrjWg1+Cud8zNgAwCyQc7Gjx8vssHe3v7T0RB2gAEbAJANMjdx4kSRDStXrvzk9EpfWwZsAEA2yNykSZNENqxYseJTrYYIhUsJBmwAQDbI3JQpU0Q2LFu27BPREH6KARsAkA3yN3XqVJENS5cuTXxild8oBmwAQDbI3/Tp00U2LF78iTEYlK5fM2ADALJB/mbMmCGyYdGiRYlMqY66y4ANAMgGizBr1iyRDQsWLEgsG4JX6k4ouVeldADIBtmaPXu2yIbffvstkSmV3l10J5T8RlA6AGSDbM2dO1dkw6+//ppYNujdvarhcWgAZIOM2dnZiWyYN2/exybTRN0yvHv1A6UDQDbIltRWENkgtSE+NpnaYHToutQNANkgZ/PnzxfZMGfOnI9NpvLppDeYz0TqBoBskLMFCxaIbJg1a9bHJlO4FNF1lRF+jLoBIBvkbOHChSIbZsyYkeA06sjrehcbssWq/agbALJBzhYvXiyyYfr06QlOowpaqNdVRmOKBoBskLmlS5eKbJg6dWrC2eDdTndCKXA2RQNANsjcsmXLRDZMmTIlwWkUzgV0d69GXqRoAMgGmVuxYoXIhkmTJsWfQP9ig9I5b6xGQdEAkA0yt3LlSpENEycmcHOqKvBX3d2r3m2oGACyQf7s7e1FNowfPz7+BEqvn/X65V5AxQCQDfK3evVqkQ3jxo2LP4HCKY9ev9z3qBgAskH+1q5dK7JhzJgxcd41eLLBpRjlAkA2WIR169aJbBg9enScd1WB83QnlHy6UC4AZINF2LBhg8iGkSNHxnlX6dVclw3BaykXALLBImzcuFFkw4gRcUfsUTpb6/XL/ZJyASAbLMLmzZtFNgwbNkz/LYMnG9xsqBUAssFSbNmyRWTD0KFD9d8yuNjg259aASAbLMXWrVtFNgwePFj/LaVnE103SmF7qBUAssFSbNu2TWTDoEGD9N9SOOXQXWxQulMrAGSDpdixY4fIBltbW/G64cWGKhQKANlgQXbt2iWyYcCAAeJ1g4sN/mMpFACywYLs3r1bZEO/fv3E6wYXGyJOUygAZIMF2bt3r8iGPn36iNcVjllENsRqwikUALLBguzbt09kQ+/evbUvGlxs8KhPlQCQDZblwIEDIht69uypfVH/YoM6cC5VAkA2WJaDBw+KbOjRo4f2RaVXa102RF6nSgDIBsty+PBhkQ3dunXTvqhwzq93sSGSKgEgGyzLkSNHRDZ07dpVekWjeKO72OD+HSUCQDZYnGPHjols6Ny5s/SKOnS37skGvyGUCADZYHGOHz8usuGXX36RXlH5j9JdbAjdSokAkA0W5+TJkyIbOnbsKL2idK+p60Yp5hklAkA2WJxTp06JbOjQoUPsf0+9/d8A0U45NRoVJQJANlicM2fOiGxo166dOuqW7mKDZyPqA4BssERnz54V2dC2bVt18HJdNgRMpT4AyAZLdO7cOZENrVu3Vnp30V2IDj9KfQCQDZbowoULIht+/vlnpWsp3VNvijfUB5Clxo0bHz9+nGzAR128eFFkQ/t2zXQXol2KUxxArgoXLiz9yVevXn379u1kAxJw+fJlkQ1zp9TQPRHt3ZHiAHJVvHhx8YdftmzZlStXxsTEkA3QuXLlithEDm0pq7vYELSI4gByVapUKStDefPmnTNnjo+PD9mA//z5559i4/j7cj7dU28Rf1AcQK6ktoJVQjJlyjRmzJi3b9+SDZbu2rVrYrOIep9Zlw0KR4oDyJWNjY1Vovr27fvgwQOywXJdv35duykUL2Kl1/1qZSoDyFiFChWsjNCuXbtLly6RDZboxo0b2o2gX5fPdE+9+dpSGUDGKlasaGW0hg0bHj58mGywLLdu3dKu/p0rM+kuRIfYUxlAxqpUqWKVRFWrVt2yZQvZYClu376tXfGvrn2uNw7oZSoDyFi1atWskqVUqVLLli2LiIggG2Tu7t272lWue+rNMatG5UFlABmrWbOmVQp88cUXM2fO9PBInR0F2WCK7t27J63pKt/oLjYoPX6gLIC81a5d2yo1jBw58uXLl2SDDD148EBaweMG6V2I9h9FWQB5q1evnlXq6dWr1927d8kGWXn48KG0as/s0F2IVoVsoCyAvDVo0MAqtbVu3fr8+fNkg0w8fvxYWqn+z3QXojVRNygLIG8//fSTVdqoX7/+gQMHyAaz9+TJE/0L0UqXwrFqf8oCfIxarVYoFFFRUeHh4SEhIYGBgX5+ft7e3h4eHq6urk5OTh8+fHj79u2rV6+eP3/+9OlT6fDrwYMHd+/evXXr1vXr1//888/Lly9fuHDhjz/+OH369IkTJ44ePXro0KH9+/fv2bNnx44dW7du3bx584YNG9auXWtvb79ixYqlS5cuWrTot99+mzdv3pw5c2bOnDlt2rTJkydPmDBh7NixI0eOHDZs2ODBg21tbfv169e7d+8ePXp07dr1l19+6dChQ9u2bX/++ecWLVo0bdq0UaNGP/74o7Tvrl27trW1tVVaqlix4saNG8kGMyZtuw3r6F2I9mpBTWAMlUoVExMTGRkZFhYWHBwcEBDg6+vr5eXl7u7u4uLi6Oj4/v37169f//PPP8+ePZMOQR49enT//v07d+7cvHnTwcHh6tWrly5dOn/+/NmzZ0+dOnX8+PEjR44cPHhw7969u3bt2r59+++//75p06b169evWbNm1apVy5cvX7JkycKFC+fPn29nZzd79uwZM2ZMnTp10qRJ48aNGz169IgRI4YOHTpo0KABAwb07du3V69e3bt379KlS6dOndq3b9+mTZtWrVo1b968SZMm0iHzDz/8ULdu3e+//75GjRrfffdd5cqVv/3226+//vqrr74qU6ZMyZIlixUrVrhw4QIFCuTNm/eLL77IlStXtmzZMmfO/Nlnn1nBaMWLF5dSjWwwS9Lf7a8T9Z56C5hITYyn0WiUSmV0dHRERERoaGhQUJC/v7+Pj4+np6ebm5v+IeSLFy/+/vvvv/766+HDh/fu3bt9+/aNGzeuXbt25cqVixcvnjt37syZMydPnjx27Jg4hNy5c+e2bdu2bNkiHX+tW7du9erVK1euXLZs2eLFixcsWPDrr7/OnTt31qxZ06dPF4eQo0aNGj58+JAhQwYOHNi/f/8+ffr07NmzW7dunTt37tixY7t27Vq3bt2yZctmzZqJQ8g6derUqlWrevXqVatWrVSp0jfffFO+fPly5cqVLl26RIkSRYsWLVSoUP78+fPkyZM7d+4cOXJkzZr1888/Z6+HT5KaJtImKh03kA1mSWr23j6hlw2h21Kxla1/CPnmzZuXL18a08oWh5D79u3bvXu3Ma1scQg5fvz4MWPGGNnK1h5CNmjQoF69elIru2bNmtWqVatSpYrUHK5QoYKNjU3ZsmVLlSolHfsUKVKkYMGC4hAye/bsWbJkyZQpE3//QHxffvmldOwiHS1xTsmMSU1+vafePh/Qq2LirWztIaR0RJAzZ05a2bBA0jGBdGQgHR9IRwnSsYJ0xFCgQAHpT0P6A5H+TKQ/FulPRvrDkf58pD8i6U9JOuaQjjyk4w/pKEQ6FpGOSJo3b96qVas2bdq0b9++U6dOXbp06d69e69evfr27TtgwIBBgwZJRzbS8Y10lCMd60hHPNJxj3T0M3v2bDs7u/nz5y9cuHDJkiXLly9ftWrVmjVr1q9fv2nTpt9//106ipKOpaQjKum4Sjq6ko6xTp06dfbs2fPnz1+6dOnq1asODg43b968c+fO/fv30+hadL58+aQjNukYkWvRZu/Vy4ciGD7c+jx3Lv72YZTPP/88a9asOXLkyJ07t3ScKO0UpKaV1MCSmllSY0tqckkNL6n5JTXCqlatWr169Vq1atWpU6d+/fo//vhjo0aNmjZtKjXdpAac1IyTGnNSk05q2EnNO6mRJzX1Bg4cOGTIkOHDh48aNWrs2LETJkyYPHnytGnTZs6cKTUTpcaitAOSGo5S81FqREpNSalBKTUrt2zZsm3btp07d+7Zs2f//v2HDh06evToiRMnpMao1CSVGqZS81RqpEpNVanBKjVbpcbrX3/99ffff7948eLVq1dv37798OGDk5OTq6urh4eH1PCVmr9SI1hqCks7O6lZLDWOpSayPP7wpYKn7vYgBaQUWpGRkclYGLLBFL15/ezBnQMXT8/q1fGzqSNoASSN1GaSWk5S+0lqRUltKalFJbWrChUqVLRo0RIlSpQuXbpcuXLly5cXh5BSm+z777+vW7fuDz/80LBhw8aNGzdr1qxly5atW7du165dx44dO3fu3K1bt549e/bp00d7CDl06NARI0aMHj163LhxEydOnDJlyvTp02fNmjV37lyp2b5gwYLFixcvW7Zs5cqVq1evFoeQ27dv37Vr1969ew8cOHD48OFjx46dPHnyzJkz586du3jx4pUrV65du3bjxo3bt29Lh5CPHj168uTJs2fPpEbk69ev37179++//zo7O7u5uXl6evr4+Pj7+wcFBYWGhkZERERHR6tUKv5wzJ2UxKn1VyBt8NJGKG0YyV4YssF0SbuDtG5law8hq1SpUq1aNSNb2dpDSFtb28GDBxvZyhaHkJs3b966desnW9n6h5CPHz9++vTp8+fPX758+ebNm/fv3zs6Orq4uLi7u3t5efn6+gYEBAQHB8vvEBIWSGqipTwVpGai1HST/hZSuDBkg+mS9nfSIeS9e/cePnz4yVa2/iGkUqnUaDQUEDAv0oFXSlJBOuxbsWJFarUgyQYAMAlSizx5qVCyZMlVq1al7sKQDQBgEmxtbZOaCqVLl169enVaLAzZAAAmYfDgwcanQtmyZdeuXZt2C0M2AIBJGDZsmDGp8NVXX61fvz6tF4ZsAACTMGrUqMRToXz58ps2bUqfhSEbAMAkjB079mOp8M0332zZsiU9F4ZsAACTMGHChAQ71t66dWv6LwzZAAAmYfLkyfqpULly5e3bt2fUwpANAGASpk2bpk2FqlWr7ty5M2MXhmwAAJMwc+bMatWq7d692xQWhmwAAJOQ1CGdyQYAANkAACAbAABkAwCAbAAAkA0AALIBAEA2AADIBgAA2QAAIBsAACAbAABkAwCAbAAAkA0AALIBAEA2AADIBgAA2QAASKZGSdGuXbsBAwaMHz/ezs4uICCAbAAAebL7P9Ku3yoea2vr7777rmrVqjly5Ijzlo2Nzdq1a8kGAJC5Tp06iV1/586dX7x4oVAoxLtv3ryxt7fPkyePfkIMHTqUbAAAORswYIDY6c+YMSORpoZ+PMRvPZANACAfderUEXv8nTt3GjmlxM/Pj2wAAHmytrYWu/s7d+4kMuXZs2f1s+H27dtkAwDIkKurq9jX58+fPzAw0MiJJdu3bycbAECGLl26JPb19erV++T0hQsXFtMvWrSIbAAAGbK3txf7+v79+39yev17XuNcnCAbAEAmhgwZIvb1Cxcu/OT0pUqVEtNLbQ6yAQBkqEGDBmJff/To0cQnDgkJERNnz549JiaGbAAAGcqXL5/Y3b958ybxif/66y8xcb9+/eK8SzYAgBx4e3uLfX3p0qU/Of20adPE9GfPniUbAECGrl27Jvb1zZs3T3zihw8fZs6cWTtxu3bt4k9ANgCAHKxfv15kw6hRoxKfuFu3btops2XLduvWLbIBAORJygORDVJOJDLl1KlTxZQODg4JTkM2AIAcNG7cWOzxb968Kb3y6NGj+JMNHjxYTJZgi4FsAAD5EA85Z8mSJSQk5L/9u5VV1apVBw4cePz48eXLl3fo0KFYsWLaaerUqXPq1KlE5kY2AIDZCwgIEK2BSpUqaV9cu3atjY1NnPF8vvvuOzs7uzhPM5ANACBDt27dEnv/Tp066b91+vRpe3v7VatWHTly5Pnz50bOkGwAALP3+++/i2yYO3duymdINgCA2Rs/frzIhmPHjpENAIDYFi1aiGx4//492QAAiC1ZsqQ2GPLmzZsqMyQbAMC8hYaGJmlIH7IBAOTv/v37IhuGDx9ONgAAYnfu3CmyYePGjWQDAMDgJqU7d+6QDQCA2GrVqolsCAsLIxsAwNI5OTmJYChTpkxqzZZsAAAzpn+xwcbGhmwAAAsVExPj6ur68OHDdevWVapUSb8rvaVLlzo4OLx48cLNzS0l55fIBgAwM9Le38oIo0ePJhsAwIKyQevRo0fv3r3z8fGJjo6Oiory8vJ6/fr1vXv3xARkAwAg1ZANAACyAQBANgAAyAYAANkAAEht/w9X2P8A0cpGyQAAAABJRU5ErkJggg==;" vertex="1" parent="1">
          <mxGeometry x="722.63" y="425" width="146.73" height="138" as="geometry" />
        </mxCell>
        <mxCell id="I1JThzbMCgrEHhUARHG0-17" value="&lt;font style=&quot;font-size: 16px;&quot;&gt;$$SES_{1}$$&lt;/font&gt;" style="text;html=1;align=center;verticalAlign=middle;whiteSpace=wrap;rounded=0;" vertex="1" parent="1">
          <mxGeometry x="273.5" y="555" width="100" height="30" as="geometry" />
        </mxCell>
        <mxCell id="I1JThzbMCgrEHhUARHG0-18" value="&lt;font style=&quot;font-size: 16px;&quot;&gt;$$SES_{2}$$&lt;/font&gt;" style="text;html=1;align=center;verticalAlign=middle;whiteSpace=wrap;rounded=0;" vertex="1" parent="1">
          <mxGeometry x="456" y="555" width="100" height="30" as="geometry" />
        </mxCell>
        <mxCell id="I1JThzbMCgrEHhUARHG0-19" value="&lt;font style=&quot;font-size: 16px;&quot;&gt;$$SES_{n}$$&lt;/font&gt;" style="text;html=1;align=center;verticalAlign=middle;whiteSpace=wrap;rounded=0;" vertex="1" parent="1">
          <mxGeometry x="746" y="555" width="100" height="30" as="geometry" />
        </mxCell>
      </root>
    </mxGraphModel>
  </diagram>
</mxfile>
